<?xml version="1.0"?>
<!--Icons from directory ""-->
<svg xmlns="http://www.w3.org/2000/svg" width="30" height="390" viewBox="0 0 30 390"><svg xmlns:xlink="http://www.w3.org/1999/xlink" id="diggblack" height="30" viewBox="-5 -5 30 30" width="30" version="1.1" y="0" x="0px"><path d="m0.005 18.004c0 1.104 0.896 2 2 2h16c1.104 0 2-0.896 2-2v-16c0-1.104-0.896-2-2-2h-16c-1.104 0-2 0.896-2 2v16z"/><g fill="#FEFEFE"><path d="m19.312 10.411c0 1.301-0.004 2.603 0.006 3.901 0 0.192-0.06 0.234-0.24 0.233-1.406-0.007-2.812-0.006-4.219-0.002-0.188 0.001-0.283-0.005-0.254-0.255 0.043-0.35 0.033-0.708 0.002-1.059-0.02-0.194 0.045-0.213 0.199-0.213 0.768 0.004 1.534-0.008 2.301 0.008 0.228 0.004 0.277-0.074 0.274-0.284-0.01-0.534-0.001-0.534-0.534-0.534-0.685 0-1.367-0.004-2.053 0.002-0.148 0.001-0.188-0.021-0.186-0.193 0.012-1.797 0.01-3.594 0.004-5.392 0-0.387-0.014-0.387 0.381-0.387h4.016c0.303 0 0.303 0 0.303 0.292v3.883z"/><path d="m13.788 10.388c0 1.309-0.002 2.617 0.004 3.926 0 0.17-0.034 0.232-0.222 0.231-1.422-0.008-2.844-0.007-4.265 0-0.17 0.001-0.22-0.045-0.214-0.214 0.012-0.359 0.012-0.723 0-1.083-0.005-0.172 0.034-0.233 0.223-0.231 0.76 0.013 1.52-0.002 2.278 0.01 0.196 0.003 0.235-0.062 0.234-0.241-0.006-0.582 0.002-0.582-0.588-0.582-0.639 0-1.278-0.005-1.917 0.003-0.164 0.002-0.231-0.023-0.231-0.216 0.008-1.851 0.007-3.701 0-5.551 0-0.176 0.057-0.207 0.219-0.206 1.421 0.006 2.843 0.008 4.265-0.001 0.188-0.001 0.219 0.061 0.219 0.229-0.008 1.309-0.005 2.618-0.005 3.926z"/><path d="m5.5 8.093c0 1.331-0.002 2.662 0.005 3.993 0 0.096-0.022 0.119-0.103 0.121-0.038 0.001-0.075 0.001-0.113 0.001-1.429 0-2.857-0.003-4.286 0.005-0.171 0-0.209-0.048-0.209-0.213 0.006-1.857 0.007-3.714 0-5.572 0-0.165 0.053-0.195 0.204-0.193 0.782 0.007 1.564 0 2.346 0.007 0.155 0.001 0.207-0.038 0.205-0.2-0.008-0.617 0.006-1.233-0.008-1.85-0.005-0.222 0.034-0.311 0.286-0.298 0.48 0.024 0.962 0.016 1.443 0.002 0.181-0.005 0.23 0.049 0.23 0.227-0.007 1.323-0.004 2.647-0.004 3.97h0.004z"/><path d="m8.284 9.233c0 0.939-0.004 1.878 0.005 2.818 0.001 0.129-0.034 0.149-0.144 0.148-0.564-0.004-1.128-0.006-1.691 0.001-0.114 0.001-0.132-0.04-0.132-0.144 0.003-1.881 0.005-3.76 0-5.639 0-0.154 0.052-0.187 0.194-0.185 0.534 0.008 1.067 0.008 1.601 0 0.143 0 0.174 0.047 0.174 0.182-0.005 0.94-0.003 1.879-0.003 2.819h-0.004z"/><path d="m7.29 5.425c-0.263 0-0.526-0.006-0.789 0.002-0.133 0.005-0.185-0.03-0.181-0.174 0.01-0.383 0.008-0.766 0.001-1.149-0.003-0.142 0.035-0.203 0.188-0.2 0.533 0.007 1.067 0.005 1.6 0 0.12-0.001 0.181 0.026 0.18 0.16-0.004 0.406-0.003 0.812 0.003 1.217 0.002 0.128-0.062 0.146-0.168 0.145-0.278-0.004-0.556-0.001-0.834-0.001z"/></g><g fill="#010101"><path d="m16.564 9.214c0-0.391 0.012-0.782-0.006-1.172-0.009-0.197 0.062-0.249 0.241-0.23 0.127 0.013 0.257 0.011 0.384 0.002 0.14-0.01 0.199 0.028 0.198 0.184-0.008 0.826-0.009 1.653-0.003 2.479 0.001 0.144-0.055 0.175-0.184 0.182-0.631 0.026-0.631 0.028-0.633-0.588 0.001-0.286 0.003-0.572 0.003-0.857z"/><path d="m11.823 9.245c0 0.406-0.005 0.812 0.003 1.219 0.002 0.138-0.021 0.197-0.184 0.199-0.629 0.006-0.629 0.012-0.629-0.618 0-0.677 0.006-1.354-0.004-2.03-0.002-0.161 0.047-0.213 0.203-0.201 0.193 0.014 0.446-0.06 0.566 0.038 0.128 0.104 0.033 0.367 0.037 0.56 0.009 0.278 0.002 0.557 0.002 0.834 0.003-0.001 0.005-0.001 0.006-0.001z"/><path d="m3.545 9.237c0 0.405-0.006 0.811 0.003 1.216 0.003 0.158-0.051 0.204-0.207 0.205-0.607 0.005-0.607 0.01-0.607-0.592 0-0.684 0.004-1.367-0.003-2.05-0.002-0.152 0.036-0.221 0.197-0.203 0.199 0.023 0.466-0.085 0.582 0.048 0.099 0.113 0.033 0.372 0.035 0.565 0.003 0.271 0.001 0.541 0 0.811z"/></g></svg><svg xmlns:xlink="http://www.w3.org/1999/xlink" height="30" width="30" version="1.1" y="30" x="0px" viewBox="-5 -5 30 30" id="fb"><path d="m18 0h-16c-1.104 0-2 0.896-2 2v16c0 1.104 0.896 2 2 2h16c1.104 0 2-0.896 2-2v-16c0-1.104-0.896-2-2-2z" fill="#3B5998"/><path d="m13.008 9.005v-1.976h3.014v-2.025h-3.413c-1.104 0-1.625 0.708-1.625 1.813v2.188h-1.963v2.024h1.962v4.987h2.024v-4.987h2.4l0.801-2.024h-3.2z" fill="#fff"/></svg><svg xmlns:xlink="http://www.w3.org/1999/xlink" height="30" width="30" version="1.1" y="60" x="0px" viewBox="-5 -5 30 30" id="gp"><path d="m18 0h-16c-1.104 0-2 0.896-2 2v16c0 1.104 0.896 2 2 2h16c1.104 0 2-0.896 2-2v-16c0-1.104-0.896-2-2-2z" fill="#DD4B39"/><path d="m16.014 6.97v-1.978h-1.004v1.978h-2.01v1.036h2.01v2.04h1.004v-2.04h1.979v-1.036h-1.979zm-6.452 7.067c-1.669-1.217-2.078-1.905-0.484-3.137 0.898-0.694 1.528-1.619 1.528-2.763 0-1.244-0.51-2.374-1.467-2.922h1.356l1.155-1.212h-5.168c-3.226 0-4.808 1.934-4.808 4.061 0 2.174 1.491 3.886 4.403 3.886-0.452 0.912-0.271 1.754 0.468 2.355-4.974 0-6.038 2.651-6.038 4.332 0 0.518 0.15 0.969 0.406 1.362h2.543c-0.629-0.557-1.002-1.307-1.002-2.093 0-1.547 1.759-3.006 3.834-2.982 2.303 0 3.675 1.559 3.675 3.062 0 0.769-0.309 1.48-0.925 2.013h1.871c0.57-0.696 0.843-1.484 0.843-2.195 0-1.456-0.545-2.533-2.19-3.767zm-2.987-2.856c-1.393-0.042-2.717-1.319-2.957-3.148-0.241-1.83 0.693-3.23 2.086-3.188 1.392 0.042 2.584 1.542 2.824 3.371s-0.561 3.007-1.953 2.965z" fill="#fff"/></svg><svg xmlns:xlink="http://www.w3.org/1999/xlink" height="30" width="30" version="1.1" y="90" x="0px" viewBox="-5 -5 30 30" id="ljpsd"><path d="m10.622 1.285c-1.32 0-2.575 0.275-3.714 0.768l-2.056-2.053h-0.004c-2.171 0.95-3.91 2.698-4.848 4.875l2.059 2.056-0.002 0.002c-0.497 1.142-0.792 2.384-0.792 3.708 0 5.169 4.189 9.359 9.357 9.359s9.357-4.189 9.357-9.359c0-5.166-4.189-9.356-9.357-9.356" fill="#00A3D9"/><path d="m9.668 14.53c0.938-2.177 2.678-3.925 4.847-4.875h0.001l-7.607-7.598h-0.004c-2.17 0.951-3.911 2.699-4.848 4.877l7.611 7.596z" fill="#003040"/><path d="m15.061 12.249c-1.261 0.553-2.271 1.568-2.816 2.832l3.553 0.735-0.737-3.567z" fill="#003040"/><path d="m15.061 12.25c-0.286-1.364-0.544-2.597-0.544-2.597l-0.003 0.001c-2.168 0.951-3.908 2.698-4.846 4.875l2.576 0.551c0.548-1.258 1.559-2.279 2.817-2.83" fill="#fff"/></svg><svg xmlns:xlink="http://www.w3.org/1999/xlink" height="30" width="30" version="1.1" viewBox="-5 -5 30 30" id="mail" y="120"><path d="m10 0c-5.523 0-10 4.477-10 10s4.477 10 10 10 10-4.477 10-10-4.477-10-10-10zm-5 5h10c0.178 0 0.352 0.038 0.511 0.111l-5.511 6.429-5.511-6.429c0.159-0.072 0.332-0.111 0.511-0.111zm-1.25 8.75v-7.5c0-0.026 0.001-0.052 0.003-0.078l3.665 4.276-3.625 3.625c-0.028-0.104-0.043-0.213-0.043-0.323zm11.25 1.25h-10c-0.11 0-0.219-0.015-0.323-0.043l3.557-3.557 1.766 2.061 1.766-2.06 3.557 3.557c-0.104 0.028-0.213 0.043-0.323 0.043zm1.25-1.25c0 0.11-0.015 0.219-0.043 0.323l-3.625-3.625 3.665-4.276c0.002 0.026 0.003 0.052 0.003 0.078v7.5z" fill="#7a9199"/></svg><svg xmlns:xlink="http://www.w3.org/1999/xlink" id="moimir" height="30" viewBox="-5 -5 30 30" width="30" version="1.1" y="150" x="0px"><path d="m0.001 0h20v4.125c-1.949 0.102-3.9-0.04-5.85 0.128-2.445-1.606-5.84-1.584-8.262 0.062-1.952-0.27-3.925-0.133-5.889-0.11l0.001-4.205z" fill="#0B71D7"/><path d="m5.892 4.314c2.42-1.646 5.814-1.668 8.262-0.062 0.832 0.551 1.561 1.268 2.065 2.133 0.05 0.092 0.146 0.275 0.194 0.367-0.584 0.061-1.166 0.121-1.751 0.184-1.544-2.088-4.562-2.828-6.938-1.841-0.985 0.38-1.805 1.112-2.358 2.005-0.597-0.06-1.194-0.12-1.791-0.179 0.1-0.192 0.205-0.384 0.318-0.569 0.508-0.815 1.208-1.498 1.999-2.038z" fill="#FFBE08"/><path d="m0.001 4.204c1.963-0.022 3.938-0.16 5.891 0.11-0.791 0.541-1.49 1.223-1.998 2.037-1.297-0.055-2.595-0.083-3.893-0.04v-2.107z" fill="#096BCC"/><path d="m14.151 4.252c1.947-0.168 3.899-0.025 5.85-0.128v2.229c-1.26-0.098-2.521-0.049-3.782 0.031-0.506-0.864-1.234-1.579-2.068-2.132z" fill="#096BCC"/><path d="m7.724 5.095c2.377-0.987 5.396-0.247 6.938 1.841l0.118 0.172c-0.385-0.291-0.791-0.551-1.182-0.832-1.76-1.426-4.355-1.68-6.348-0.594-0.77 0.383-1.3 1.073-1.846 1.709-0.09 0.076-0.268 0.232-0.356 0.311 0.101-0.205 0.206-0.404 0.316-0.602 0.554-0.893 1.375-1.625 2.36-2.005z" fill="#014C96"/><path d="m7.252 5.684c1.991-1.086 4.588-0.834 6.349 0.592l0.129 0.255c-0.478-0.068-0.92 0.088-1.211 0.477-0.748-0.635-1.681-1.093-2.681-1.089-1.884-0.048-3.605 1.427-4.021 3.236-0.02 0.074-0.058 0.221-0.078 0.295-0.223 0.36-0.58 0.6-0.945 0.8 0.057-0.977 0.305-1.932 0.611-2.857 0.547-0.637 1.078-1.329 1.847-1.709z" fill="#0968C7"/><path d="m5.817 9.154c0.416-1.81 2.137-3.284 4.021-3.237 1-0.003 1.933 0.455 2.681 1.089 0.291-0.389 0.733-0.545 1.211-0.477 0.399 0.886 0.158 1.888 0.222 2.826-0.519-0.006-1.033-0.013-1.55-0.022-0.075-0.207-0.145-0.421-0.258-0.612-0.697-1.377-2.705-1.769-3.906-0.826-0.453 0.332-0.689 0.862-0.88 1.373l-0.052 0.142c-0.498-0.084-0.994-0.168-1.489-0.256z" fill="#FEB406"/><path d="m0.001 6.311c1.298-0.041 2.596-0.014 3.893 0.041-0.114 0.186-0.219 0.377-0.319 0.57-0.258 0.52-0.434 1.074-0.562 1.639-0.98 0.271-2.003 0.293-3.012 0.221v-2.471z" fill="#0865C1"/><path d="m13.601 6.275c0.391 0.281 0.795 0.541 1.182 0.832 0.478 0.721 0.695 1.578 0.773 2.432-0.002 1.38-0.211 2.982-1.355 3.906-0.333-0.629-0.251-1.351-0.251-2.034 0.007-0.687 0.002-1.37 0.002-2.054-0.063-0.938 0.179-1.94-0.222-2.826l-0.129-0.256z" fill="#065DB5"/><path d="m16.219 6.386c1.261-0.081 2.522-0.129 3.782-0.03v2.477c-0.979-0.062-1.958-0.068-2.936-0.021-0.01-0.062-0.031-0.183-0.043-0.244-0.109-0.631-0.328-1.238-0.609-1.813-0.049-0.094-0.144-0.278-0.194-0.369z" fill="#0865C1"/><path d="m14.662 6.936c0.585-0.062 1.167-0.123 1.751-0.184 0.281 0.576 0.5 1.184 0.609 1.814-0.019 0.3-0.051 0.598-0.078 0.897-0.463 0.024-0.926 0.05-1.389 0.074-0.08-0.853-0.298-1.71-0.775-2.433l-0.118-0.168z" fill="#FEB106"/><path d="m3.013 8.561c0.129-0.565 0.305-1.119 0.562-1.64 0.597 0.059 1.194 0.12 1.791 0.179-0.11 0.198-0.217 0.398-0.315 0.603-0.463 0.897-0.591 1.929-0.529 2.927-0.541-0.055-1.082-0.11-1.625-0.165-0.02-0.521-0.006-1.042 0.049-1.562 0.018-0.087 0.052-0.257 0.067-0.342z" fill="#FDAE06"/><path d="m8.237 7.895c1.201-0.941 3.209-0.551 3.906 0.828-0.785-0.533-1.678-1.105-2.674-0.961-0.923 0.076-1.572 0.83-2.109 1.508 0.188-0.512 0.425-1.041 0.877-1.375z" fill="#014C96"/><path d="m5.05 7.702c0.09-0.077 0.268-0.233 0.355-0.312-0.309 0.926-0.555 1.881-0.611 2.858 0.365-0.2 0.723-0.438 0.945-0.8-0.152 0.994 0.141 1.984 0.621 2.853 0.22 0.48 0.455 0.966 0.826 1.351 0.209 0.233 0.418 0.472 0.627 0.707-0.287 0.039-0.57 0.078-0.854 0.117-0.325-0.209-0.632-0.444-0.921-0.699-0.854-0.834-1.374-1.967-1.516-3.146-0.063-1 0.065-2.031 0.528-2.929z" fill="#0559AD"/><path d="m7.358 9.27c0.539-0.678 1.187-1.433 2.11-1.508 0.997-0.146 1.888 0.428 2.675 0.961 0.112 0.19 0.182 0.404 0.258 0.611 0.146 0.867 0.031 1.826-0.574 2.503-0.917 1.146-2.858 1.277-3.868 0.188-0.67-0.685-0.765-1.707-0.653-2.614l0.052-0.141z" fill="#065EB5"/><path d="m0.001 8.781c1.009 0.071 2.032 0.049 3.012-0.22-0.016 0.085-0.049 0.257-0.067 0.343-0.176 0.861-0.303 1.73-0.396 2.604-0.848 0.086-1.698 0.114-2.549 0.082v-2.809z" fill="#065FB6"/><path d="m17.022 8.566c0.012 0.062 0.033 0.183 0.043 0.244 0.037 0.246 0.066 0.496 0.09 0.742 0.099 1.451-0.221 2.917-0.975 4.165-0.486 0.517-0.998 1.192-1.779 1.196-0.576 0.072-1.084-0.253-1.512-0.6-0.127-0.235-0.201-0.498-0.272-0.758-0.019-0.168-0.032-0.339-0.044-0.509-0.986 0.872-2.371 1.335-3.672 1.002-1.039-0.233-1.883-0.94-2.541-1.749-0.48-0.867-0.773-1.857-0.621-2.853 0.02-0.074 0.059-0.222 0.078-0.296 0.494 0.089 0.99 0.173 1.488 0.257-0.111 0.907-0.017 1.93 0.653 2.614 1.01 1.09 2.951 0.957 3.868-0.188 0.605-0.678 0.721-1.637 0.574-2.503 0.516 0.01 1.031 0.018 1.549 0.021 0 0.686 0.005 1.369-0.002 2.055 0 0.685-0.082 1.404 0.251 2.035 1.146-0.924 1.354-2.526 1.356-3.907 0.463-0.024 0.926-0.05 1.389-0.074 0.031-0.295 0.062-0.593 0.079-0.894z" fill="#FC9E04"/><path d="m17.065 8.811c0.978-0.047 1.957-0.041 2.936 0.021v3.027c-0.855 0.009-1.711-0.025-2.562-0.104-0.1-0.732-0.203-1.466-0.283-2.203-0.023-0.247-0.053-0.495-0.091-0.741z" fill="#065EB5"/><path d="m2.55 11.509c0.094-0.874 0.221-1.743 0.396-2.604-0.057 0.52-0.069 1.041-0.049 1.562 0.031 0.398 0.082 0.795 0.14 1.189 0.056 0.954 0.358 1.86 0.674 2.755-1.235 0.111-2.478 0.096-3.71-0.01v-2.81c0.852 0.032 1.702 0.004 2.549-0.082z" fill="#0457AA"/><path d="m17.155 9.553c0.08 0.737 0.185 1.471 0.283 2.203 0.852 0.077 1.705 0.111 2.562 0.104v4.746c-2.293 0.022-4.588 0.076-6.879-0.006-0.107-0.345-0.211-0.688-0.326-1.031-0.083-0.314-0.324-0.678-0.699-0.62-0.475 0.058-0.922 0.243-1.394 0.315-1.292 0.19-2.628-0.125-3.744-0.787 0.284-0.039 0.567-0.078 0.854-0.117-0.209-0.235-0.418-0.474-0.627-0.707 0.847 0.516 1.805 0.951 2.819 0.869 0.955-0.02 1.788-0.537 2.611-0.963 0.071 0.26 0.146 0.521 0.272 0.758 0.262 0.863 1.312 1.25 2.094 0.834 0.623-0.24 0.937-0.861 1.197-1.433 0.757-1.248 1.076-2.714 0.977-4.165z" fill="#0353A2"/><path d="m2.897 10.465c0.541 0.055 1.082 0.11 1.625 0.165 0.142 1.181 0.662 2.312 1.516 3.147-0.668 0.041-1.335 0.076-2.004 0.106-0.463-0.678-0.775-1.444-0.997-2.229-0.058-0.394-0.108-0.791-0.14-1.189z" fill="#FC9E04"/><path d="m3.038 11.654c0.221 0.785 0.533 1.553 0.997 2.229 0.098 0.146 0.198 0.294 0.3 0.443 0.63 1.328 1.982 2.097 3.328 2.539 1.408 0.431 2.973 0.571 4.38 0.062 0.347-0.099 0.474-0.46 0.628-0.744 0.068-0.199 0.094-0.41 0.125-0.617 0.115 0.343 0.219 0.688 0.326 1.031 2.291 0.082 4.586 0.028 6.879 0.006v3.397h-20v-5.6c1.232 0.104 2.477 0.119 3.71 0.009-0.315-0.893-0.617-1.802-0.673-2.755z" fill="#014C96"/><path d="m6.36 12.302c0.658 0.81 1.502 1.517 2.541 1.749 1.302 0.333 2.686-0.13 3.672-1.002 0.012 0.17 0.025 0.342 0.044 0.51-0.823 0.426-1.656 0.943-2.611 0.963-1.017 0.082-1.974-0.354-2.819-0.869-0.372-0.385-0.607-0.871-0.827-1.351z" fill="#0E3C81"/><path d="m4.034 13.885c0.668-0.029 1.335-0.064 2.004-0.107 0.289 0.255 0.596 0.49 0.921 0.699 1.116 0.662 2.453 0.979 3.744 0.787 0.472-0.072 0.919-0.259 1.394-0.315 0.375-0.058 0.616 0.306 0.699 0.62-0.031 0.207-0.057 0.418-0.125 0.617-0.699 0.568-1.635 0.662-2.503 0.688-2.188 0.036-4.409-0.858-5.833-2.546-0.104-0.148-0.203-0.297-0.301-0.443z" fill="#FB9102"/><path d="m14.401 14.914c0.781-0.004 1.293-0.682 1.779-1.196-0.262 0.57-0.574 1.191-1.197 1.433-0.78 0.416-1.832 0.029-2.094-0.834 0.428 0.344 0.936 0.669 1.512 0.597z" fill="#123A7A"/><path d="m4.334 14.328c1.424 1.688 3.644 2.582 5.833 2.546 0.869-0.026 1.805-0.12 2.503-0.688-0.153 0.284-0.282 0.646-0.628 0.744-1.407 0.51-2.973 0.368-4.38-0.062-1.345-0.443-2.698-1.212-3.328-2.54z" fill="#0F3777"/></svg><svg xmlns:xlink="http://www.w3.org/1999/xlink" height="30" width="30" version="1.1" y="180" x="0px" viewBox="-5 -5 30 30" id="ok"><path d="m18 0h-16c-1.104 0-2 0.896-2 2v16c0 1.104 0.896 2 2 2h16c1.104 0 2-0.896 2-2v-16c0-1.104-0.896-2-2-2z" fill="#ED812B"/><path d="m10.002 10.072c1.99 0 3.609-1.616 3.609-3.602 0-1.987-1.619-3.604-3.609-3.604s-3.608 1.616-3.608 3.604c0 1.986 1.618 3.602 3.608 3.602zm0-5.085c0.856 0 1.553 0.672 1.553 1.497s-0.696 1.497-1.553 1.497c-0.855 0-1.552-0.672-1.552-1.497s0.697-1.497 1.552-1.497zm4.039 5.733c-0.322-0.496-1-0.646-1.515-0.333-1.536 0.932-3.514 0.931-5.048 0-0.514-0.312-1.192-0.163-1.515 0.333-0.323 0.495-0.169 1.148 0.344 1.461 0.678 0.41 1.414 0.702 2.177 0.87l-2.096 2.021c-0.429 0.413-0.429 1.084 0 1.498 0.215 0.207 0.496 0.311 0.776 0.311 0.281 0 0.562-0.104 0.777-0.311l2.059-1.986 2.061 1.986c0.429 0.414 1.124 0.414 1.553 0 0.43-0.414 0.43-1.085 0-1.498l-2.096-2.021c0.764-0.168 1.5-0.46 2.178-0.87 0.514-0.313 0.668-0.967 0.345-1.461z" fill="#fff"/></svg><svg xmlns:xlink="http://www.w3.org/1999/xlink" height="30" width="30" version="1.1" y="210" x="0px" viewBox="-5 -5 30 30" id="sf2"><path d="m0.005 18.006c0 1.104 0.896 2 2 2h16c1.104 0 2-0.896 2-2v-16c0-1.104-0.896-2-2-2h-16c-1.104 0-2 0.896-2 2v16z" fill="#26AFF5"/><path d="m1.679 7.082c1.989 0.272 3.978 0.544 6.043 0.826-1.072-1.385-2.096-2.707-3.119-4.029 0.011-0.014 0.022-0.027 0.034-0.041 0.64 0.341 1.281 0.682 1.921 1.024 1.867 1 3.736 1.999 5.599 3.007 0.186 0.101 0.284 0.079 0.42-0.074 0.653-0.738 1.323-1.461 1.978-2.197 0.125-0.14 0.258-0.175 0.438-0.192 0.543-0.052 1.027 0.088 1.509 0.329 0.59 0.295 1.2 0.55 1.86 0.85-0.605 0.185-1.15 0.352-1.694 0.517-0.313 0.095-0.626 0.195-0.942 0.28-0.146 0.039-0.211 0.103-0.229 0.264-0.062 0.568-0.148 1.133-0.217 1.701-0.016 0.123-0.068 0.207-0.15 0.289-1.113 1.104-2.227 2.208-3.336 3.314-0.095 0.095-0.193 0.129-0.325 0.125-0.507-0.013-1.014-0.007-1.521-0.028-0.176-0.008-0.25 0.059-0.303 0.211-0.11 0.318-0.216 0.641-0.355 0.946-0.235 0.516-0.319 1.045-0.29 1.61 0.031 0.599 0.007 1.199 0.007 1.828-0.7-0.197-1.383-0.388-2.065-0.586-0.515-0.15-0.512-0.156-0.249-0.631 0.855-1.54 1.766-3.05 2.576-4.615 0.11-0.213 0.098-0.304-0.122-0.428-2.451-1.379-4.896-2.771-7.342-4.16-0.051-0.024-0.096-0.054-0.142-0.082 0.005-0.02 0.011-0.039 0.016-0.058z" fill="#FEFEFE"/></svg><svg xmlns:xlink="http://www.w3.org/1999/xlink" id="share" xml:space="preserve" height="30" viewBox="-5 -5 30 30" width="30" version="1.1" y="240" x="0px" enable-background="new 0 0 20 20"><path d="m18 0h-16c-1.104 0-2 0.896-2 2v16c0 1.104 0.896 2 2 2h16c1.104 0 2-0.896 2-2v-16c0-1.104-0.896-2-2-2z" fill="#DAE3E6"/><path d="m13.714 12.109c-0.708 0-1.34 0.336-1.759 0.859l-3.446-2.098c0.04-0.175 0.063-0.356 0.063-0.544 0-0.288-0.052-0.562-0.141-0.817l3.588-2.345c0.418 0.482 1.022 0.786 1.695 0.786 1.261 0 2.286-1.063 2.286-2.375s-1.025-2.375-2.286-2.375-2.284 1.064-2.284 2.375c0 0.184 0.022 0.361 0.06 0.532l-3.71 2.423c-0.4-0.36-0.921-0.58-1.492-0.58-1.265 0-2.288 1.064-2.288 2.376 0 1.31 1.023 2.376 2.288 2.375 0.668 0 1.271-0.301 1.688-0.78l3.493 2.128c-0.025 0.142-0.041 0.286-0.041 0.436 0 1.312 1.023 2.376 2.286 2.376 1.26 0 2.284-1.063 2.284-2.376 0.002-1.312-1.023-2.376-2.284-2.376z" fill="#7A9199"/></svg><svg xmlns:xlink="http://www.w3.org/1999/xlink" height="30" width="30" version="1.1" viewBox="-5 -5 30 30" id="stumbleupon" y="270"><path d="m10 0c-5.523 0-10 4.477-10 10s4.477 10 10 10 10-4.477 10-10-4.477-10-10-10zm0 5c-0.689 0-1.25 0.561-1.25 1.25v5c0 2.068-1.682 3.75-3.75 3.75s-3.75-1.682-3.75-3.75v-2.5h2.5v2.5c0 0.689 0.561 1.25 1.25 1.25s1.25-0.561 1.25-1.25v-5c0-2.068 1.682-3.75 3.75-3.75s3.75 1.682 3.75 3.477v1.211l-1.602 0.469-0.898-0.469v-1.211c0-0.416-0.561-0.977-1.25-0.977zm5 10c-2.068 0-3.75-1.682-3.75-4.023v-2.422l0.898 0.469 1.602-0.469v2.422c0 0.963 0.561 1.523 1.25 1.523s1.25-0.561 1.25-1.25v-2.5h2.5v2.5c0 2.068-1.682 3.75-3.75 3.75z" fill="#eb4924"/></svg><svg xmlns:xlink="http://www.w3.org/1999/xlink" height="30" width="30" version="1.1" y="300" x="0px" viewBox="-5 -5 30 30" id="tm2psd"><path d="m0 18c0 1.105 0.895 2 2 2h16c1.104 0 2-0.895 2-2v-16c0-1.104-0.896-2-2-2h-16c-1.105 0-2 0.896-2 2v16z" fill="#34526F"/><path d="m12.043 13.279c-0.304 0-0.574-0.07-0.811-0.213-0.178-0.104-0.3-0.244-0.365-0.421-0.066-0.176-0.099-0.573-0.099-1.191v-2.996h2.536v-1.676h-2.536v-2.5h-1.512c-0.068 0.55-0.192 1.003-0.373 1.359s-0.419 0.456-0.717 0.71c-0.298 0.254-1.083 0.45-1.501 0.586v1.521h1.597v3.999c0 0.487 0.051 0.859 0.153 1.116s0.286 0.5 0.551 0.728c0.264 0.229 0.584 0.403 0.959 0.526 0.374 0.123 0.806 0.186 1.294 0.186 0.43 0 0.812-0.044 1.182-0.13 0.369-0.087 0.783-0.236 1.239-0.451v-1.68c-0.536 0.352-1.056 0.527-1.597 0.527z" fill="#fff"/></svg><svg xmlns:xlink="http://www.w3.org/1999/xlink" height="30" width="30" version="1.1" y="330" x="0px" viewBox="-5 -5 30 30" id="tw"><path d="m18 0h-16c-1.104 0-2 0.896-2 2v16c0 1.104 0.896 2 2 2h16c1.104 0 2-0.896 2-2v-16c0-1.104-0.896-2-2-2z" fill="#55ACEE"/><path d="m15.133 6.554c0.52-0.314 0.918-0.812 1.105-1.408-0.486 0.292-1.022 0.505-1.596 0.618-0.46-0.494-1.114-0.804-1.837-0.804-1.621 0-2.815 1.532-2.448 3.125-2.09-0.106-3.944-1.12-5.183-2.659-0.659 1.143-0.342 2.64 0.778 3.398-0.412-0.014-0.8-0.127-1.138-0.318-0.028 1.181 0.808 2.281 2.016 2.527-0.354 0.099-0.742 0.12-1.135 0.045 0.319 1.01 1.249 1.746 2.348 1.767-1.056 0.839-2.388 1.214-3.722 1.055 1.11 0.72 2.434 1.141 3.854 1.141 4.668 0 7.306-3.99 7.148-7.569 0.49-0.358 0.916-0.807 1.256-1.316-0.454 0.2-0.937 0.337-1.446 0.398z" fill="#fff"/></svg><svg xmlns:xlink="http://www.w3.org/1999/xlink" height="30" width="30" version="1.1" y="360" x="0px" viewBox="-5 -5 30 30" id="vk"><path d="m18 0h-16c-1.104 0-2 0.896-2 2v16c0 1.104 0.896 2 2 2h16c1.104 0 2-0.896 2-2v-16c0-1.104-0.896-2-2-2z" fill="#45668E"/><path d="m14.889 11.602c-1.031-0.997-1.083-1.014-0.191-2.215 1.107-1.48 2.402-3.395 1.125-3.395h-1.961c-0.475 0-0.514 0.285-0.678 0.699-0.615 1.487-1.75 3.754-2.191 3.458-0.459-0.312-0.248-1.388-0.213-3.202 0.011-0.477 0.005-0.804-0.703-0.976-1.929-0.463-3.397 0.452-2.719 0.581 0.965 0.187 0.975 2.268 0.746 3.203-0.389 1.622-2.036-1.685-2.65-3.135-0.145-0.345-0.191-0.627-0.72-0.627h-1.768c-0.386 0-0.574 0.181-0.438 0.55 0.135 0.373 1.678 3.948 3.503 5.991 1.691 1.888 3.009 1.517 4.172 1.517 0.375 0 0.531-0.255 0.521-0.584-0.018-1.219 0.191-1.673 1.012-0.812 0.92 0.941 1.107 1.292 2.213 1.292h1.711c1.546-0.001 0.317-1.303-0.771-2.345z" fill="#fff"/></svg></svg>
