<svg version="1.1" id="Layer_1" xmlns="http://www.w3.org/2000/svg" xmlns:xlink="http://www.w3.org/1999/xlink" x="0px" y="0px"
	 width="72px" height="620px" viewBox="0 0 72 620">
<g>
	<defs>
		<rect id="SVGID_1_" width="71.999" height="576"/>
	</defs>
	<clipPath id="SVGID_2_">
		<use xlink:href="#SVGID_1_"  overflow="visible"/>
	</clipPath>
	<path clip-path="url(#SVGID_2_)" fill="#FFFFFF" d="M65.666,564.255c-0.857-0.69-1.773-1.311-2.676-1.943
		c-1.799-1.264-3.445-1.362-4.788,0.671c-0.754,1.142-1.81,1.191-2.913,0.691c-3.043-1.38-5.392-3.506-6.768-6.598
		c-0.609-1.368-0.602-2.595,0.823-3.562c0.755-0.512,1.515-1.117,1.453-2.235c-0.079-1.458-3.619-6.331-5.017-6.845
		c-0.579-0.213-1.155-0.199-1.744-0.001c-3.277,1.102-4.635,3.798-3.335,6.99c3.88,9.522,10.706,16.152,20.103,20.199
		c0.536,0.23,1.132,0.322,1.434,0.405c2.139,0.021,4.645-2.04,5.369-4.085C68.305,565.974,66.831,565.192,65.666,564.255"/>
	<path clip-path="url(#SVGID_2_)" fill="#FFFFFF" d="M55.13,545.41c6.87,1.056,10.038,4.322,10.913,11.242
		c0.081,0.639-0.157,1.601,0.755,1.619c0.953,0.018,0.724-0.93,0.731-1.569c0.08-6.517-5.602-12.559-12.201-12.781
		c-0.498,0.071-1.527-0.344-1.592,0.772C53.693,545.446,54.561,545.322,55.13,545.41"/>
	<path clip-path="url(#SVGID_2_)" fill="#FFFFFF" d="M56.474,547.307c-0.661-0.079-1.533-0.391-1.688,0.526
		c-0.16,0.962,0.812,0.864,1.437,1.005c4.243,0.947,5.721,2.492,6.419,6.701c0.102,0.613-0.101,1.568,0.942,1.41
		c0.772-0.117,0.493-0.937,0.558-1.414C64.176,551.493,60.713,547.816,56.474,547.307"/>
	<path clip-path="url(#SVGID_2_)" fill="#FFFFFF" d="M56.863,550.611c-0.441,0.011-0.874,0.059-1.036,0.53
		c-0.243,0.704,0.269,0.872,0.79,0.956c1.74,0.279,2.656,1.306,2.83,3.041c0.047,0.472,0.346,0.854,0.801,0.8
		c0.631-0.075,0.688-0.637,0.669-1.17C60.948,552.818,58.744,550.564,56.863,550.611"/>
	<path clip-path="url(#SVGID_2_)" fill="#7B519D" d="M29.667,564.274c-0.858-0.69-1.774-1.311-2.676-1.943
		c-1.8-1.264-3.446-1.362-4.788,0.671c-0.754,1.142-1.809,1.191-2.913,0.691c-3.043-1.38-5.392-3.506-6.768-6.598
		c-0.609-1.368-0.601-2.595,0.823-3.562c0.755-0.512,1.514-1.117,1.453-2.235c-0.079-1.458-3.619-6.331-5.017-6.845
		c-0.578-0.213-1.155-0.2-1.743-0.001c-3.278,1.102-4.636,3.798-3.335,6.99c3.879,9.522,10.706,16.152,20.103,20.199
		c0.535,0.23,1.131,0.322,1.432,0.405c2.139,0.021,4.646-2.04,5.369-4.086C32.305,565.993,30.832,565.211,29.667,564.274"/>
	<path clip-path="url(#SVGID_2_)" fill="#7B519D" d="M19.13,545.43c6.87,1.056,10.038,4.322,10.913,11.242
		c0.081,0.639-0.157,1.601,0.755,1.619c0.953,0.018,0.723-0.93,0.731-1.569c0.081-6.517-5.601-12.559-12.201-12.781
		c-0.497,0.071-1.528-0.344-1.592,0.772C17.693,545.466,18.561,545.342,19.13,545.43"/>
	<path clip-path="url(#SVGID_2_)" fill="#7B519D" d="M20.474,547.326c-0.661-0.079-1.533-0.391-1.688,0.526
		c-0.161,0.962,0.811,0.864,1.436,1.005c4.243,0.948,5.721,2.492,6.419,6.701c0.102,0.613-0.101,1.568,0.942,1.41
		c0.773-0.117,0.494-0.937,0.558-1.413C28.176,551.514,24.712,547.836,20.474,547.326"/>
	<path clip-path="url(#SVGID_2_)" fill="#7B519D" d="M20.863,550.631c-0.441,0.011-0.874,0.059-1.036,0.53
		c-0.244,0.704,0.268,0.872,0.79,0.956c1.74,0.279,2.657,1.306,2.83,3.041c0.047,0.472,0.346,0.854,0.801,0.8
		c0.631-0.075,0.688-0.637,0.669-1.17C24.948,552.838,22.744,550.584,20.863,550.631"/>
	<polygon clip-path="url(#SVGID_2_)" fill="#FFFFFF" points="53,513.441 53,530.096 53,532.186 56.332,530.618 56.332,511.814 	"/>
	<polyline clip-path="url(#SVGID_2_)" fill="#FFFFFF" points="64.538,518.939 65.001,523.715 58.554,522.313 	"/>
	<path clip-path="url(#SVGID_2_)" fill="#FFFFFF" d="M56.917,517.979v2.117c1.395,0.24,2.643,0.7,3.637,1.316l2.355-1.457
		C61.307,518.963,59.232,518.26,56.917,517.979 M46.333,525.051c0-2.361,2.572-4.349,6.079-4.957v-2.115
		c-5.363,0.646-9.411,3.568-9.411,7.072c0,3.633,4.346,6.634,9.999,7.135v-2.09C49.198,529.62,46.333,527.543,46.333,525.051"/>
	<polygon clip-path="url(#SVGID_2_)" fill="#FFFFFF" points="53,513.441 53,530.096 53,532.186 56.332,530.618 56.332,511.814 	"/>
	<polyline clip-path="url(#SVGID_2_)" fill="#FFFFFF" points="64.538,518.939 65.001,523.715 58.554,522.313 	"/>
	<path clip-path="url(#SVGID_2_)" fill="#FFFFFF" d="M56.917,517.979v2.117c1.395,0.24,2.643,0.7,3.637,1.316l2.355-1.457
		C61.307,518.963,59.232,518.26,56.917,517.979 M46.333,525.051c0-2.361,2.572-4.349,6.079-4.957v-2.115
		c-5.363,0.646-9.411,3.568-9.411,7.072c0,3.633,4.346,6.634,9.999,7.135v-2.09C49.198,529.62,46.333,527.543,46.333,525.051"/>
	<polygon clip-path="url(#SVGID_2_)" fill="#F69320" points="16.999,513.441 16.999,530.097 16.999,532.187 20.332,530.619
		20.332,511.813 	"/>
	<polyline clip-path="url(#SVGID_2_)" fill="#F69320" points="28.538,518.939 29,523.715 22.553,522.313 	"/>
	<path clip-path="url(#SVGID_2_)" fill="#F69320" d="M20.916,517.979v2.117c1.395,0.24,2.643,0.7,3.638,1.316l2.356-1.457
		C25.306,518.963,23.231,518.26,20.916,517.979 M10.333,525.052c0-2.362,2.571-4.35,6.078-4.958v-2.115
		C11.047,518.625,7,521.547,7,525.052c0,3.633,4.347,6.634,9.999,7.135v-2.09C13.197,529.62,10.333,527.543,10.333,525.052"/>
	<polygon clip-path="url(#SVGID_2_)" fill="#F69320" points="16.999,513.441 16.999,530.097 16.999,532.187 20.332,530.619
		20.332,511.813 	"/>
	<polyline clip-path="url(#SVGID_2_)" fill="#F69320" points="28.538,518.939 29,523.715 22.553,522.313 	"/>
	<path clip-path="url(#SVGID_2_)" fill="#F69320" d="M20.916,517.979v2.117c1.395,0.24,2.643,0.7,3.638,1.316l2.356-1.457
		C25.306,518.963,23.231,518.26,20.916,517.979 M10.333,525.052c0-2.362,2.571-4.35,6.078-4.958v-2.115
		C11.047,518.625,7,521.547,7,525.052c0,3.633,4.347,6.634,9.999,7.135v-2.09C13.197,529.62,10.333,527.543,10.333,525.052"/>
	<path clip-path="url(#SVGID_2_)" fill="#FFFFFF" d="M59.982,489.349c-1.141,0-2.158,0.54-2.833,1.386l-5.551-3.379
		c0.064-0.284,0.103-0.577,0.103-0.88c0-0.463-0.083-0.905-0.228-1.315l5.778-3.774c0.674,0.774,1.646,1.266,2.73,1.266
		c2.032,0,3.683-1.712,3.683-3.827c0-2.111-1.65-3.824-3.683-3.824c-2.029,0-3.678,1.713-3.678,3.824
		c0,0.295,0.034,0.58,0.095,0.857l-5.975,3.901c-0.645-0.58-1.481-0.935-2.403-0.935c-2.036,0-3.686,1.713-3.686,3.827
		c0,2.11,1.649,3.827,3.686,3.824c1.078,0,2.047-0.484,2.721-1.254l5.624,3.428c-0.04,0.229-0.065,0.461-0.065,0.702
		c0,2.11,1.65,3.824,3.682,3.824c2.03,0,3.679-1.714,3.679-3.824C63.665,491.063,62.015,489.349,59.982,489.349"/>
	<path clip-path="url(#SVGID_2_)" fill="#007399" d="M23.983,489.349c-1.14,0-2.158,0.54-2.833,1.386l-5.551-3.379
		c0.064-0.284,0.102-0.577,0.102-0.88c0-0.463-0.083-0.905-0.228-1.315l5.779-3.774c0.674,0.774,1.646,1.266,2.731,1.266
		c2.031,0,3.681-1.712,3.681-3.827c0-2.111-1.65-3.824-3.681-3.824c-2.031,0-3.679,1.713-3.679,3.824
		c0,0.295,0.035,0.58,0.096,0.857l-5.975,3.901c-0.644-0.58-1.482-0.935-2.404-0.935c-2.036,0-3.684,1.713-3.684,3.827
		c0,2.11,1.648,3.827,3.684,3.824c1.078,0,2.048-0.484,2.721-1.254l5.625,3.428c-0.041,0.229-0.066,0.461-0.066,0.702
		c0,2.11,1.649,3.824,3.682,3.824c2.029,0,3.678-1.714,3.678-3.824C27.664,491.063,26.014,489.349,23.983,489.349"/>
	<path clip-path="url(#SVGID_2_)" fill="#FFFFFF" d="M54.002,441.522c-2.715,0-4.917,2.202-4.917,4.919v6.987
		c0,0.645-0.521,1.166-1.167,1.166c-0.641,0-1.165-0.521-1.165-1.166v-3.105h-3.752v3.237c0,2.715,2.203,4.917,4.917,4.917
		c2.718,0,4.919-2.202,4.919-4.917v-7.119c0-0.644,0.521-1.164,1.165-1.164c0.643,0,1.165,0.521,1.165,1.164v1.423l1.552,0.713
		l2.203-0.713v-1.423C58.922,443.725,56.718,441.522,54.002,441.522 M55.167,450.389v3.172c0,2.715,2.202,4.917,4.918,4.917
		s4.916-2.202,4.916-4.917v-3.107h-3.753v3.107c0,0.642-0.521,1.163-1.163,1.163c-0.645,0-1.163-0.521-1.163-1.163v-3.172
		l-2.203,0.712L55.167,450.389z"/>
	<path clip-path="url(#SVGID_2_)" fill="#EB4924" d="M18.001,441.522c-2.715,0-4.917,2.202-4.917,4.919v6.987
		c0,0.645-0.523,1.166-1.167,1.166c-0.641,0-1.165-0.521-1.165-1.166v-3.105H7v3.237c0,2.715,2.203,4.917,4.917,4.917
		c2.718,0,4.919-2.202,4.919-4.917v-7.119c0-0.644,0.522-1.164,1.165-1.164c0.642,0,1.165,0.521,1.165,1.164v1.423l1.552,0.713
		l2.202-0.713v-1.423C22.92,443.725,20.717,441.522,18.001,441.522 M19.166,450.389v3.172c0,2.715,2.202,4.917,4.918,4.917
		S29,456.275,29,453.561v-3.107h-3.753v3.107c0,0.642-0.52,1.163-1.163,1.163c-0.644,0-1.164-0.521-1.164-1.163v-3.172l-2.202,0.712
		L19.166,450.389z"/>
	<path clip-path="url(#SVGID_2_)" fill="#FFFFFF" d="M62.25,406.782H45.752c-1.52,0-2.751,1.229-2.751,2.75v8.938
		c0,1.517,1.231,2.748,2.751,2.748H62.25c1.52,0,2.751-1.231,2.751-2.748v-8.938C65.001,408.012,63.77,406.782,62.25,406.782
		 M44.376,410.392L49.189,414l-4.813,3.61V410.392z M63.626,418.47c0,0.758-0.617,1.373-1.376,1.373H45.752
		c-0.759,0-1.376-0.615-1.376-1.373l5.386-4.039l3.003,2.252c0.364,0.273,0.801,0.411,1.235,0.411c0.437,0,0.871-0.138,1.237-0.411
		l3.003-2.252L63.626,418.47z M63.626,417.61L58.812,414l4.813-3.608V417.61z M54.824,416.134c-0.238,0.179-0.523,0.273-0.824,0.273
		c-0.299,0-0.584-0.095-0.824-0.273l-8.8-6.602c0-0.758,0.617-1.377,1.376-1.377H62.25c0.759,0,1.376,0.619,1.376,1.377
		L54.824,416.134z"/>
	<path clip-path="url(#SVGID_2_)" fill="#007399" d="M26.25,406.781H9.75c-1.519,0-2.75,1.23-2.75,2.751v8.938
		c0,1.517,1.231,2.749,2.75,2.749h16.5c1.518,0,2.75-1.232,2.75-2.749v-8.938C29,408.012,27.769,406.781,26.25,406.781
		 M8.375,410.392L13.188,414l-4.812,3.61V410.392z M27.625,418.47c0,0.759-0.616,1.373-1.374,1.373H9.75
		c-0.759,0-1.375-0.614-1.375-1.373l5.385-4.039l3.002,2.252c0.366,0.273,0.803,0.411,1.237,0.411c0.436,0,0.871-0.138,1.237-0.411
		l3.004-2.252L27.625,418.47z M27.625,417.61L22.812,414l4.812-3.608V417.61z M18.825,416.134c-0.24,0.179-0.524,0.273-0.825,0.273
		c-0.3,0-0.585-0.095-0.824-0.273l-8.8-6.602c0-0.759,0.616-1.377,1.375-1.377h16.5c0.758,0,1.374,0.618,1.374,1.377L18.825,416.134
		z"/>
	<path clip-path="url(#SVGID_2_)" fill="#FFFFFF" d="M58.229,370.522c1.101,0,1.991,0.893,1.991,1.993
		c0,1.1-0.891,1.992-1.991,1.992s-1.994-0.893-1.994-1.992C56.234,371.415,57.128,370.522,58.229,370.522 M49.784,370.522
		c1.1,0,1.992,0.893,1.992,1.993c0,1.1-0.893,1.992-1.992,1.992c-1.102,0-1.993-0.893-1.993-1.992
		C47.79,371.415,48.683,370.522,49.784,370.522 M64.407,384.46c-0.188,0.11-0.396,0.165-0.601,0.165
		c-0.412,0-0.81-0.214-1.032-0.595l-0.941-1.614c-2.124,1.959-4.899,3.062-7.836,3.062c-2.936,0-5.708-1.1-7.83-3.055l-0.939,1.607
		c-0.221,0.381-0.621,0.595-1.032,0.595c-0.204,0-0.413-0.055-0.601-0.165c-0.571-0.332-0.764-1.063-0.432-1.635l2.479-4.245
		c0.333-0.57,1.063-0.765,1.635-0.432c0.568,0.335,0.763,1.066,0.43,1.636l-0.299,0.51c1.726,1.783,4.083,2.793,6.59,2.793
		c2.509,0,4.869-1.013,6.594-2.797l-0.295-0.506c-0.333-0.569-0.14-1.301,0.43-1.636c0.571-0.331,1.302-0.139,1.634,0.432
		l2.479,4.245C65.17,383.396,64.979,384.128,64.407,384.46"/>
	<path clip-path="url(#SVGID_2_)" fill="#168DE2" d="M22.229,370.522c1.1,0,1.992,0.893,1.992,1.993c0,1.1-0.892,1.992-1.992,1.992
		c-1.102,0-1.994-0.893-1.994-1.992C20.235,371.415,21.126,370.522,22.229,370.522 M13.784,370.522c1.1,0,1.992,0.893,1.992,1.993
		c0,1.1-0.892,1.992-1.992,1.992c-1.101,0-1.993-0.893-1.993-1.992C11.791,371.415,12.683,370.522,13.784,370.522 M28.408,384.46
		c-0.188,0.11-0.396,0.165-0.601,0.165c-0.412,0-0.81-0.214-1.033-0.595l-0.941-1.614c-2.123,1.959-4.899,3.062-7.836,3.062
		c-2.935,0-5.708-1.1-7.829-3.055l-0.94,1.607c-0.221,0.381-0.621,0.595-1.033,0.595c-0.204,0-0.412-0.055-0.6-0.165
		c-0.571-0.332-0.764-1.063-0.432-1.635l2.479-4.245c0.332-0.57,1.064-0.765,1.635-0.432c0.57,0.335,0.762,1.066,0.429,1.636
		l-0.298,0.51c1.725,1.783,4.083,2.793,6.589,2.793c2.51,0,4.869-1.013,6.594-2.797l-0.294-0.506
		c-0.333-0.569-0.141-1.301,0.428-1.636c0.571-0.331,1.304-0.139,1.635,0.432l2.478,4.245
		C29.17,383.396,28.978,384.128,28.408,384.46"/>
	<path clip-path="url(#SVGID_2_)" fill="#FFFFFF" d="M46.521,335.675h2.193v10.561H43v-7.488h3.523v-3.071L46.521,335.675z
		 M46.521,340.509h-1.32v3.965h1.32V340.509z M49.594,346.234h2.203v-7.487h-2.203V346.234z M49.594,337.866h2.203v-2.191h-2.203
		V337.866z M52.678,338.747h5.725v10.12h-5.725v-1.75h3.523v-0.883h-3.523V338.747z M56.201,340.509h-1.322v3.965h1.322V340.509z
		 M59.283,338.747H65v10.12h-5.717v-1.75h3.514v-0.883h-3.514V338.747z M62.797,340.509h-1.32v3.965h1.32V340.509z"/>
	<path clip-path="url(#SVGID_2_)" d="M10.523,335.675h2.193v10.561H7v-7.488h3.524L10.523,335.675L10.523,335.675z M10.523,340.509
		H9.202v3.965h1.321V340.509z M13.594,346.234h2.204v-7.487h-2.204V346.234z M13.594,337.866h2.204v-2.191h-2.204V337.866z
		 M16.678,338.747h5.726v10.12h-5.726v-1.75h3.523v-0.883h-3.523V338.747z M20.201,340.509H18.88v3.965h1.321V340.509z
		 M23.285,338.747H29v10.12h-5.715v-1.75h3.513v-0.883h-3.513V338.747z M26.798,340.509h-1.321v3.965h1.321V340.509z"/>
	<path clip-path="url(#SVGID_2_)" fill="#FFFFFF" d="M59.262,312.57l1.06,3.132c-0.206,0.309-0.692,0.601-1.469,0.872
		c-0.774,0.273-1.557,0.415-2.341,0.425c-0.916,0.017-1.755-0.098-2.518-0.344c-0.765-0.247-1.391-0.571-1.886-0.978
		c-0.493-0.407-0.911-0.875-1.254-1.402c-0.344-0.528-0.589-1.057-0.733-1.586c-0.146-0.529-0.221-1.05-0.221-1.562v-7.19h-2.22
		v-2.843c0.634-0.229,1.204-0.536,1.705-0.918c0.503-0.386,0.903-0.782,1.203-1.191c0.301-0.41,0.556-0.859,0.767-1.348
		c0.211-0.49,0.362-0.927,0.45-1.309c0.088-0.384,0.154-0.774,0.197-1.17c0.008-0.045,0.029-0.081,0.059-0.113
		c0.031-0.032,0.064-0.046,0.1-0.046h3.228v5.604h4.399v3.331h-4.415v6.85c0,0.264,0.029,0.511,0.086,0.74
		c0.059,0.229,0.158,0.461,0.298,0.694c0.141,0.232,0.358,0.416,0.653,0.549c0.295,0.132,0.653,0.194,1.077,0.186
		C58.178,312.936,58.769,312.809,59.262,312.57"/>
	<path clip-path="url(#SVGID_2_)" fill="#29344A" d="M23.262,312.57l1.058,3.132c-0.203,0.309-0.691,0.601-1.467,0.872
		c-0.776,0.273-1.556,0.415-2.341,0.425c-0.917,0.017-1.755-0.098-2.519-0.344c-0.763-0.247-1.39-0.571-1.884-0.978
		c-0.493-0.407-0.912-0.875-1.255-1.402c-0.343-0.528-0.589-1.057-0.734-1.586s-0.219-1.05-0.219-1.562v-7.19H11.68v-2.843
		c0.634-0.229,1.204-0.536,1.707-0.918c0.502-0.386,0.902-0.782,1.202-1.191c0.3-0.41,0.555-0.859,0.767-1.348
		c0.211-0.49,0.362-0.927,0.449-1.309c0.089-0.384,0.155-0.774,0.198-1.17c0.009-0.045,0.029-0.081,0.059-0.113
		c0.031-0.032,0.063-0.046,0.099-0.046h3.227v5.604h4.401v3.331h-4.416v6.85c0,0.264,0.029,0.511,0.086,0.74
		c0.058,0.229,0.157,0.461,0.299,0.694c0.14,0.232,0.358,0.416,0.652,0.549c0.296,0.132,0.654,0.194,1.078,0.186
		C22.179,312.936,22.769,312.809,23.262,312.57"/>
	<path clip-path="url(#SVGID_2_)" fill="#FFFFFF" d="M65.001,227.187c-0.622,0.914-1.378,1.689-2.261,2.331
		c0.008,0.132,0.014,0.326,0.014,0.589c0,1.209-0.179,2.412-0.528,3.617c-0.356,1.211-0.893,2.366-1.615,3.472
		c-0.72,1.108-1.579,2.09-2.576,2.937c-0.995,0.852-2.196,1.533-3.6,2.039c-1.405,0.505-2.91,0.764-4.51,0.764
		c-2.521,0-4.83-0.679-6.924-2.029c0.326,0.037,0.688,0.06,1.089,0.06c2.093,0,3.959-0.645,5.596-1.928
		c-0.976-0.016-1.851-0.319-2.621-0.898c-0.774-0.583-1.306-1.324-1.593-2.227c0.307,0.044,0.592,0.067,0.852,0.067
		c0.4,0,0.795-0.05,1.188-0.155c-1.042-0.212-1.907-0.731-2.591-1.555c-0.683-0.822-1.023-1.779-1.023-2.869v-0.059
		c0.631,0.356,1.311,0.546,2.036,0.573c-0.614-0.406-1.103-0.94-1.466-1.603c-0.361-0.661-0.547-1.376-0.545-2.149
		c0-0.819,0.206-1.578,0.614-2.275c1.128,1.386,2.498,2.496,4.111,3.329c1.615,0.836,3.346,1.295,5.188,1.391
		c-0.074-0.355-0.113-0.696-0.113-1.032c0-1.246,0.441-2.312,1.32-3.193c0.881-0.878,1.941-1.319,3.189-1.319
		c1.307,0,2.402,0.476,3.293,1.427c1.013-0.199,1.971-0.56,2.863-1.091c-0.344,1.071-1.003,1.897-1.982,2.484
		C63.269,227.791,64.134,227.561,65.001,227.187"/>
	<path clip-path="url(#SVGID_2_)" fill="#60B7E6" d="M29,227.188c-0.623,0.913-1.379,1.688-2.261,2.33
		c0.008,0.133,0.013,0.327,0.013,0.589c0,1.209-0.178,2.412-0.528,3.617c-0.355,1.211-0.893,2.366-1.615,3.472
		c-0.72,1.108-1.579,2.09-2.575,2.937c-0.995,0.851-2.197,1.534-3.601,2.039c-1.405,0.505-2.909,0.764-4.51,0.764
		c-2.521,0-4.829-0.679-6.923-2.029c0.327,0.037,0.689,0.059,1.088,0.059c2.095,0,3.96-0.644,5.598-1.927
		c-0.977-0.016-1.852-0.319-2.623-0.898c-0.773-0.584-1.304-1.324-1.591-2.227c0.305,0.044,0.59,0.067,0.85,0.067
		c0.4,0,0.796-0.051,1.187-0.155c-1.041-0.212-1.905-0.731-2.59-1.555c-0.682-0.822-1.024-1.779-1.024-2.869v-0.059
		c0.632,0.356,1.311,0.546,2.036,0.574c-0.614-0.407-1.102-0.941-1.465-1.604c-0.362-0.66-0.546-1.376-0.544-2.149
		c0-0.819,0.205-1.577,0.615-2.275c1.126,1.386,2.496,2.496,4.11,3.33c1.616,0.836,3.345,1.294,5.187,1.39
		c-0.074-0.354-0.111-0.696-0.111-1.032c0-1.246,0.44-2.312,1.319-3.192c0.88-0.879,1.942-1.32,3.189-1.32
		c1.306,0,2.402,0.477,3.292,1.427c1.014-0.199,1.972-0.56,2.864-1.09c-0.344,1.07-1.003,1.896-1.982,2.483
		C27.269,227.792,28.133,227.561,29,227.188"/>
	<path clip-path="url(#SVGID_2_)" fill="#FFFFFF" d="M64.97,192.627c0.176,0.489-0.397,1.609-1.717,3.367
		c-0.185,0.243-0.433,0.57-0.747,0.974c-0.595,0.763-0.938,1.264-1.031,1.5c-0.129,0.315-0.075,0.624,0.162,0.929
		c0.131,0.162,0.438,0.474,0.929,0.94h0.011l0.047,0.047c1.075,0.999,1.806,1.844,2.188,2.529c0.021,0.038,0.049,0.086,0.075,0.143
		c0.025,0.057,0.053,0.16,0.079,0.303c0.025,0.146,0.024,0.275-0.007,0.391c-0.03,0.114-0.126,0.218-0.286,0.315
		c-0.161,0.094-0.387,0.143-0.676,0.142l-2.931,0.045c-0.184,0.04-0.399,0.021-0.644-0.055c-0.244-0.078-0.442-0.162-0.595-0.253
		l-0.229-0.136c-0.229-0.162-0.497-0.406-0.8-0.734c-0.308-0.327-0.569-0.625-0.786-0.888c-0.217-0.262-0.449-0.483-0.699-0.663
		c-0.248-0.179-0.463-0.239-0.646-0.177c-0.023,0.008-0.054,0.02-0.093,0.04c-0.037,0.019-0.103,0.074-0.194,0.167
		c-0.091,0.092-0.174,0.206-0.246,0.338c-0.073,0.132-0.138,0.333-0.195,0.594c-0.058,0.265-0.081,0.56-0.075,0.889
		c0,0.114-0.013,0.22-0.04,0.316c-0.025,0.096-0.056,0.165-0.086,0.211l-0.047,0.058c-0.137,0.144-0.337,0.229-0.604,0.252h-1.316
		c-0.543,0.03-1.101-0.032-1.674-0.19c-0.573-0.156-1.074-0.358-1.506-0.606c-0.433-0.248-0.824-0.5-1.179-0.757
		c-0.354-0.255-0.625-0.476-0.808-0.658l-0.288-0.272c-0.076-0.08-0.181-0.192-0.313-0.346c-0.136-0.152-0.407-0.499-0.82-1.041
		c-0.412-0.542-0.815-1.119-1.214-1.73c-0.397-0.61-0.864-1.419-1.402-2.418c-0.538-1.002-1.037-2.04-1.495-3.116
		c-0.045-0.122-0.068-0.223-0.068-0.309c0-0.083,0.01-0.144,0.033-0.182l0.047-0.068c0.115-0.147,0.331-0.218,0.652-0.218
		l3.139-0.023c0.091,0.014,0.18,0.039,0.264,0.076c0.084,0.034,0.145,0.067,0.182,0.096l0.06,0.034
		c0.121,0.084,0.213,0.206,0.273,0.368c0.153,0.381,0.329,0.777,0.528,1.185c0.198,0.408,0.354,0.72,0.469,0.933l0.184,0.333
		c0.221,0.457,0.435,0.854,0.642,1.191c0.206,0.335,0.392,0.599,0.555,0.786c0.163,0.185,0.323,0.333,0.476,0.439
		c0.152,0.109,0.282,0.164,0.389,0.164c0.107,0,0.211-0.022,0.31-0.057c0.015-0.011,0.034-0.029,0.058-0.057
		c0.021-0.033,0.069-0.115,0.138-0.254c0.068-0.137,0.119-0.32,0.154-0.538c0.035-0.221,0.07-0.532,0.106-0.927
		c0.04-0.4,0.04-0.876,0-1.435c-0.013-0.304-0.048-0.581-0.102-0.836c-0.054-0.251-0.107-0.426-0.159-0.526l-0.07-0.136
		c-0.19-0.26-0.515-0.427-0.973-0.495c-0.099-0.014-0.081-0.105,0.058-0.272c0.13-0.147,0.274-0.261,0.436-0.344
		c0.404-0.199,1.316-0.29,2.737-0.275c0.624,0.006,1.141,0.057,1.544,0.149c0.154,0.038,0.282,0.091,0.384,0.156
		c0.103,0.063,0.18,0.155,0.235,0.274c0.054,0.117,0.094,0.24,0.12,0.366c0.026,0.125,0.038,0.301,0.039,0.519
		c0.003,0.222-0.003,0.434-0.011,0.632c-0.008,0.199-0.02,0.468-0.028,0.807c-0.011,0.342-0.017,0.656-0.017,0.946
		c0,0.083-0.005,0.245-0.012,0.48c-0.01,0.238-0.012,0.422-0.008,0.549c0.006,0.131,0.02,0.288,0.041,0.465
		c0.022,0.181,0.066,0.329,0.133,0.446c0.064,0.119,0.15,0.213,0.257,0.282c0.061,0.016,0.128,0.031,0.195,0.047
		c0.068,0.015,0.168-0.026,0.298-0.128c0.129-0.098,0.275-0.23,0.435-0.395c0.162-0.164,0.359-0.42,0.597-0.766
		c0.235-0.351,0.495-0.758,0.776-1.232c0.46-0.795,0.869-1.655,1.228-2.579c0.029-0.076,0.068-0.142,0.113-0.199
		c0.045-0.057,0.086-0.098,0.125-0.118l0.049-0.036l0.057-0.029c0,0,0.05-0.012,0.147-0.034c0.1-0.023,0.175-0.026,0.23-0.006
		l3.299-0.022c0.297-0.039,0.542-0.03,0.731,0.028c0.194,0.058,0.311,0.119,0.356,0.19L64.97,192.627z"/>
	<path clip-path="url(#SVGID_2_)" fill="#3B5F8E" d="M28.97,192.627c0.174,0.489-0.397,1.609-1.718,3.367
		c-0.183,0.243-0.432,0.57-0.746,0.974c-0.596,0.763-0.938,1.264-1.032,1.5c-0.129,0.315-0.075,0.624,0.163,0.929
		c0.13,0.162,0.439,0.474,0.929,0.94h0.011l0.046,0.047c1.076,0.999,1.805,1.844,2.187,2.529c0.021,0.038,0.049,0.086,0.076,0.143
		c0.025,0.057,0.052,0.16,0.079,0.303c0.026,0.146,0.025,0.275-0.007,0.391c-0.03,0.114-0.127,0.218-0.286,0.315
		c-0.16,0.095-0.387,0.143-0.675,0.142l-2.931,0.045c-0.184,0.04-0.399,0.021-0.644-0.055c-0.244-0.078-0.442-0.162-0.595-0.253
		l-0.229-0.136c-0.229-0.162-0.497-0.406-0.801-0.734c-0.307-0.327-0.569-0.625-0.785-0.888c-0.218-0.262-0.45-0.483-0.7-0.663
		c-0.248-0.179-0.463-0.239-0.645-0.177c-0.024,0.008-0.054,0.02-0.093,0.04c-0.038,0.019-0.103,0.074-0.195,0.167
		c-0.092,0.092-0.174,0.206-0.246,0.338c-0.073,0.132-0.138,0.333-0.196,0.594c-0.057,0.265-0.081,0.56-0.074,0.889
		c0,0.114-0.014,0.22-0.041,0.316c-0.026,0.096-0.057,0.165-0.086,0.211l-0.046,0.058c-0.137,0.144-0.338,0.229-0.606,0.252h-1.317
		c-0.542,0.03-1.099-0.032-1.672-0.19c-0.574-0.156-1.075-0.357-1.506-0.606c-0.432-0.247-0.824-0.5-1.179-0.757
		c-0.355-0.255-0.625-0.476-0.808-0.658l-0.287-0.272c-0.076-0.08-0.182-0.192-0.315-0.346c-0.134-0.152-0.407-0.499-0.819-1.041
		s-0.816-1.119-1.215-1.73c-0.397-0.61-0.864-1.419-1.402-2.418c-0.539-1.002-1.037-2.04-1.494-3.116
		C7.023,192.955,7,192.854,7,192.768c0-0.083,0.011-0.144,0.034-0.182l0.047-0.068c0.115-0.147,0.331-0.218,0.652-0.218l3.138-0.023
		c0.091,0.014,0.18,0.039,0.264,0.075c0.084,0.035,0.145,0.068,0.183,0.097l0.058,0.034c0.122,0.084,0.214,0.206,0.275,0.368
		c0.153,0.381,0.328,0.777,0.527,1.185c0.198,0.408,0.355,0.72,0.469,0.933l0.184,0.332c0.221,0.458,0.435,0.855,0.641,1.192
		c0.206,0.335,0.392,0.599,0.555,0.786c0.164,0.185,0.323,0.333,0.476,0.439c0.152,0.109,0.282,0.164,0.388,0.164
		c0.108,0,0.211-0.022,0.31-0.057c0.015-0.011,0.035-0.029,0.058-0.057c0.022-0.033,0.068-0.115,0.137-0.254
		c0.068-0.137,0.119-0.32,0.155-0.538c0.034-0.221,0.07-0.532,0.107-0.927c0.039-0.4,0.039-0.876,0-1.435
		c-0.014-0.305-0.049-0.581-0.103-0.836c-0.053-0.251-0.106-0.426-0.159-0.526l-0.07-0.136c-0.191-0.26-0.515-0.427-0.973-0.495
		c-0.098-0.014-0.08-0.105,0.057-0.273c0.131-0.146,0.275-0.26,0.436-0.343c0.405-0.199,1.317-0.29,2.737-0.275
		c0.626,0.006,1.141,0.057,1.546,0.149c0.153,0.038,0.28,0.091,0.383,0.156c0.103,0.063,0.18,0.155,0.235,0.274
		c0.053,0.117,0.093,0.24,0.12,0.366c0.027,0.125,0.039,0.301,0.04,0.519c0.001,0.222-0.004,0.434-0.012,0.632
		c-0.008,0.199-0.019,0.468-0.028,0.807c-0.011,0.342-0.017,0.655-0.017,0.946c0,0.083-0.005,0.245-0.012,0.48
		c-0.01,0.238-0.012,0.422-0.008,0.549c0.006,0.131,0.02,0.288,0.042,0.465c0.022,0.181,0.066,0.329,0.132,0.446
		c0.065,0.119,0.151,0.213,0.257,0.282c0.061,0.016,0.128,0.031,0.195,0.047c0.07,0.015,0.169-0.026,0.298-0.128
		c0.13-0.098,0.276-0.23,0.436-0.395c0.161-0.164,0.359-0.42,0.595-0.766c0.236-0.351,0.496-0.758,0.778-1.232
		c0.459-0.795,0.868-1.655,1.226-2.579c0.03-0.076,0.069-0.142,0.115-0.199c0.045-0.057,0.086-0.098,0.125-0.118l0.048-0.036
		l0.057-0.029c0,0,0.049-0.012,0.148-0.035c0.099-0.022,0.174-0.025,0.23-0.005l3.298-0.022c0.298-0.039,0.543-0.03,0.733,0.027
		c0.193,0.059,0.309,0.12,0.355,0.191L28.97,192.627z"/>
	<path clip-path="url(#SVGID_2_)" fill="#FFFFFF" d="M59.713,151.16v3.488h-2.075c-0.759,0-1.27,0.16-1.534,0.477
		c-0.266,0.315-0.396,0.794-0.396,1.428v2.497h3.872l-0.516,3.916h-3.357V173h-4.047v-10.034h-3.371v-3.916h3.371v-2.882
		c0-1.639,0.458-2.908,1.374-3.814c0.918-0.903,2.139-1.354,3.665-1.354c1.295,0,2.3,0.053,3.015,0.158V151.16z"/>
	<path clip-path="url(#SVGID_2_)" fill="#2A438B" d="M23.713,151.16v3.488h-2.075c-0.759,0-1.269,0.16-1.535,0.477
		c-0.265,0.315-0.396,0.794-0.396,1.428v2.497h3.872l-0.515,3.916h-3.358V173h-4.047v-10.034h-3.371v-3.916h3.371v-2.882
		c0-1.639,0.458-2.908,1.374-3.814c0.918-0.903,2.138-1.354,3.665-1.354c1.295,0,2.3,0.053,3.015,0.158V151.16z"/>
	<g id="Odnoklassniki_2_" clip-path="url(#SVGID_2_)">
		<path fill="#FFFFFF" d="M53.927,117.899c1.367,0,2.48,1.114,2.48,2.481s-1.113,2.483-2.48,2.483s-2.482-1.116-2.482-2.483
			S52.56,117.899,53.927,117.899z M53.927,126.374c3.306,0,5.994-2.688,5.994-5.993s-2.688-5.994-5.994-5.994
			c-3.307,0-5.994,2.688-5.994,5.994S50.62,126.374,53.927,126.374"/>
		<path fill="#FFFFFF" d="M56.352,131.265c1.221-0.278,2.397-0.761,3.48-1.443c0.82-0.515,1.068-1.601,0.552-2.421
			c-0.518-0.822-1.601-1.068-2.422-0.552c-2.455,1.544-5.616,1.543-8.071,0c-0.821-0.517-1.905-0.271-2.42,0.552
			c-0.518,0.822-0.272,1.906,0.55,2.421c1.083,0.682,2.26,1.165,3.481,1.443l-3.354,3.351c-0.685,0.688-0.685,1.799,0.002,2.484
			c0.344,0.342,0.792,0.514,1.241,0.514s0.898-0.172,1.242-0.514l3.293-3.293l3.294,3.293c0.686,0.685,1.796,0.685,2.483,0
			c0.686-0.686,0.686-1.799,0-2.484L56.352,131.265"/>
	</g>
	<g id="Odnoklassniki_1_" clip-path="url(#SVGID_2_)">
		<path fill="#F4731C" d="M17.927,117.899c1.368,0,2.481,1.114,2.481,2.481s-1.113,2.483-2.481,2.483s-2.482-1.116-2.482-2.483
			S16.56,117.899,17.927,117.899z M17.927,126.374c3.306,0,5.995-2.688,5.995-5.993s-2.689-5.994-5.995-5.994
			c-3.307,0-5.994,2.688-5.994,5.994S14.621,126.374,17.927,126.374"/>
		<path fill="#F4731C" d="M20.352,131.265c1.221-0.278,2.398-0.761,3.48-1.443c0.82-0.515,1.068-1.601,0.551-2.421
			c-0.517-0.822-1.6-1.068-2.421-0.552c-2.456,1.544-5.617,1.543-8.072,0c-0.822-0.517-1.905-0.271-2.42,0.552
			c-0.518,0.822-0.272,1.906,0.549,2.421c1.083,0.682,2.261,1.165,3.482,1.443l-3.354,3.351c-0.685,0.688-0.685,1.799,0.002,2.484
			c0.344,0.342,0.792,0.514,1.241,0.514c0.45,0,0.899-0.172,1.243-0.514l3.292-3.293l3.294,3.293c0.686,0.685,1.796,0.685,2.483,0
			c0.685-0.686,0.685-1.799,0-2.484L20.352,131.265"/>
	</g>
	<path clip-path="url(#SVGID_2_)" fill="#FFFFFF" d="M43.019,85.18c2.621,0.357,5.244,0.716,7.965,1.088
		c-1.416-1.826-2.763-3.567-4.11-5.309c0.014-0.017,0.029-0.036,0.044-0.054c0.844,0.45,1.689,0.9,2.53,1.349
		c2.461,1.318,4.923,2.634,7.38,3.963c0.244,0.132,0.374,0.105,0.553-0.099c0.86-0.972,1.74-1.925,2.604-2.894
		c0.165-0.186,0.341-0.231,0.579-0.253c0.718-0.069,1.353,0.116,1.989,0.433c0.779,0.389,1.581,0.726,2.449,1.119
		c-0.795,0.244-1.517,0.464-2.231,0.682c-0.409,0.125-0.824,0.256-1.239,0.368c-0.195,0.052-0.281,0.138-0.303,0.349
		c-0.081,0.749-0.195,1.493-0.286,2.242c-0.021,0.16-0.09,0.272-0.196,0.38c-1.468,1.455-2.936,2.908-4.397,4.368
		c-0.124,0.125-0.252,0.171-0.426,0.164c-0.669-0.019-1.338-0.009-2.003-0.038c-0.235-0.011-0.332,0.077-0.401,0.279
		c-0.144,0.418-0.285,0.845-0.468,1.249c-0.308,0.679-0.419,1.376-0.382,2.122c0.041,0.789,0.01,1.578,0.01,2.408
		c-0.923-0.261-1.824-0.511-2.72-0.77c-0.681-0.2-0.677-0.207-0.33-0.834c1.126-2.029,2.327-4.017,3.393-6.081
		c0.147-0.28,0.13-0.402-0.158-0.564c-3.23-1.818-6.451-3.649-9.673-5.481c-0.067-0.032-0.128-0.071-0.188-0.109
		C43.005,85.228,43.013,85.205,43.019,85.18"/>
	<path clip-path="url(#SVGID_2_)" fill="#26AFF5" d="M7.019,85.18c2.62,0.358,5.243,0.716,7.963,1.089
		c-1.414-1.827-2.762-3.568-4.11-5.31c0.015-0.017,0.029-0.036,0.046-0.054c0.842,0.451,1.687,0.9,2.53,1.349
		c2.459,1.318,4.922,2.635,7.379,3.963c0.243,0.132,0.373,0.105,0.552-0.099c0.86-0.972,1.741-1.925,2.604-2.893
		c0.165-0.186,0.34-0.232,0.579-0.253c0.717-0.07,1.351,0.116,1.989,0.432c0.777,0.389,1.581,0.726,2.449,1.119
		c-0.794,0.244-1.516,0.464-2.232,0.682c-0.409,0.125-0.824,0.256-1.238,0.368c-0.197,0.052-0.281,0.138-0.303,0.349
		c-0.081,0.749-0.196,1.493-0.286,2.242c-0.022,0.16-0.089,0.272-0.196,0.38c-1.469,1.455-2.935,2.908-4.397,4.368
		c-0.125,0.125-0.252,0.171-0.427,0.163c-0.67-0.018-1.338-0.009-2.004-0.037c-0.233-0.011-0.33,0.077-0.401,0.279
		c-0.143,0.418-0.284,0.845-0.466,1.249c-0.309,0.678-0.419,1.376-0.382,2.121c0.04,0.79,0.009,1.579,0.009,2.409
		c-0.922-0.261-1.824-0.511-2.721-0.77c-0.68-0.2-0.675-0.207-0.329-0.834c1.126-2.03,2.327-4.018,3.393-6.081
		c0.147-0.28,0.131-0.402-0.159-0.564c-3.229-1.818-6.45-3.649-9.673-5.481C7.121,85.335,7.061,85.295,7,85.257
		C7.004,85.228,7.012,85.205,7.019,85.18"/>
	<path clip-path="url(#SVGID_2_)" fill="#013040" d="M46.001,53.385c0-0.317,0.122-0.63,0.361-0.871c0.48-0.481,1.259-0.481,1.74,0
		l4.055,4.054l7.744-7.744c0.479-0.479,1.258-0.479,1.74,0c0.479,0.48,0.479,1.26,0,1.741l-8.616,8.611
		c-0.478,0.48-1.258,0.48-1.737,0l-4.926-4.921C46.123,54.013,46.001,53.698,46.001,53.385"/>
	<path clip-path="url(#SVGID_2_)" fill="#819399" d="M18.698,44.403c-1.455,0-2.837,0.303-4.09,0.844l-2.264-2.26H12.34
		C9.948,44.034,8.033,45.96,7,48.356l2.268,2.264l-0.004,0.002c-0.546,1.257-0.871,2.625-0.871,4.084
		c0,5.693,4.613,10.306,10.305,10.306C24.389,65.012,29,60.399,29,54.707C29,49.017,24.389,44.403,18.698,44.403"/>
	<path clip-path="url(#SVGID_2_)" fill="#013040" d="M17.646,58.988c1.033-2.396,2.95-4.322,5.339-5.369l-8.376-8.366h-0.007
		c-2.388,1.047-4.305,2.971-5.338,5.371L17.646,58.988z"/>
	<path clip-path="url(#SVGID_2_)" fill="#013040" d="M23.584,56.476c-1.386,0.608-2.498,1.726-3.099,3.118l3.912,0.811
		L23.584,56.476z"/>
	<path clip-path="url(#SVGID_2_)" fill="#FFFFFF" d="M23.584,56.476c-0.31-1.501-0.597-2.86-0.597-2.86l-0.004,0.002
		c-2.387,1.048-4.304,2.97-5.337,5.37l2.837,0.606C21.088,58.21,22.202,57.084,23.584,56.476"/>
	<path clip-path="url(#SVGID_2_)" fill="#FFFFFF" d="M54.699,8.403c-1.454,0-2.838,0.302-4.091,0.846l-2.265-2.261H48.34
		c-2.392,1.047-4.306,2.972-5.339,5.368l2.269,2.265l-0.004,0.001c-0.546,1.258-0.87,2.624-0.87,4.084
		c0,5.693,4.61,10.306,10.304,10.306c5.691,0,10.302-4.613,10.302-10.306C65.001,13.017,60.391,8.403,54.699,8.403"/>
	<path clip-path="url(#SVGID_2_)" fill="#248FCE" d="M53.646,22.989c1.033-2.398,2.95-4.322,5.339-5.37L50.61,9.252h-0.006
		c-2.39,1.048-4.306,2.973-5.339,5.372L53.646,22.989z"/>
	<path clip-path="url(#SVGID_2_)" fill="#248FCE" d="M59.587,20.477c-1.388,0.607-2.501,1.725-3.101,3.118l3.912,0.809
		L59.587,20.477z"/>
	<path clip-path="url(#SVGID_2_)" fill="#FFFFFF" d="M59.587,20.477c-0.312-1.503-0.6-2.86-0.6-2.86l-0.002,0.002
		c-2.389,1.048-4.306,2.97-5.339,5.37l2.838,0.604C57.088,22.21,58.201,21.084,59.587,20.477"/>
	<path clip-path="url(#SVGID_2_)" fill="#248FCE" d="M18.698,8.403c-1.455,0-2.837,0.302-4.09,0.845l-2.264-2.261H12.34
		C9.948,8.034,8.033,9.96,7,12.356l2.268,2.264l-0.004,0.002c-0.546,1.257-0.871,2.624-0.871,4.084
		c0,5.693,4.613,10.306,10.305,10.306C24.389,29.012,29,24.399,29,18.707C29,13.017,24.389,8.403,18.698,8.403"/>
	<path clip-path="url(#SVGID_2_)" fill="#013040" d="M17.646,22.988c1.033-2.397,2.95-4.321,5.339-5.369l-8.376-8.367h-0.007
		c-2.388,1.048-4.305,2.973-5.338,5.372L17.646,22.988z"/>
	<path clip-path="url(#SVGID_2_)" fill="#013040" d="M23.584,20.477c-1.386,0.607-2.498,1.725-3.099,3.117l3.912,0.811
		L23.584,20.477z"/>
	<path clip-path="url(#SVGID_2_)" fill="#FFFFFF" d="M23.584,20.477c-0.31-1.502-0.597-2.861-0.597-2.861l-0.004,0.002
		c-2.387,1.049-4.304,2.97-5.337,5.37l2.837,0.605C21.088,22.21,22.202,21.084,23.584,20.477"/>
	<path clip-path="url(#SVGID_2_)" fill="#FFFFFF" d="M51.53,262.661c0.933,0.344,1.79,0.886,2.517,1.559
		c-0.244,0.264-0.507,0.512-0.76,0.769c-0.479,0.479-0.958,0.958-1.438,1.438c-0.475-0.454-1.054-0.803-1.686-0.992
		c-0.739-0.222-1.537-0.251-2.294-0.092c-0.887,0.189-1.706,0.651-2.337,1.299c-0.512,0.521-0.899,1.155-1.135,1.845
		c-0.336,0.975-0.332,2.063,0,3.042c0.324,0.963,0.959,1.815,1.79,2.4c0.521,0.365,1.114,0.626,1.74,0.752
		c0.614,0.122,1.253,0.109,1.866,0.004c0.613-0.109,1.206-0.332,1.723-0.681c0.819-0.55,1.4-1.441,1.564-2.416
		c-1.421,0-2.842,0-4.262,0c0-1.017,0-2.034,0-3.052c2.45,0,4.904,0,7.354,0c0.244,1.379,0.192,2.812-0.198,4.153
		c-0.356,1.231-1.033,2.374-1.979,3.244c-0.896,0.824-2.018,1.391-3.202,1.664c-1.312,0.299-2.699,0.307-4.001-0.042
		c-1.035-0.273-2.005-0.77-2.842-1.433c-0.883-0.702-1.613-1.602-2.123-2.61c-0.781-1.546-1.02-3.358-0.676-5.056
		c0.139-0.685,0.365-1.345,0.681-1.967c0.904-1.803,2.525-3.228,4.43-3.879C47.958,262.025,49.849,262.038,51.53,262.661z
		 M63.362,268.517v-2.638h-2.186v2.638h-2.633v2.092h2.633v2.726h2.186v-2.726H66v-2.092H63.362z"/>
	<path clip-path="url(#SVGID_2_)" fill="#EA4335" d="M15.83,262.661c0.933,0.344,1.791,0.886,2.517,1.559
		c-0.244,0.264-0.508,0.512-0.761,0.769c-0.479,0.479-0.958,0.958-1.438,1.438c-0.475-0.454-1.054-0.803-1.685-0.992
		c-0.74-0.222-1.539-0.252-2.294-0.092c-0.887,0.189-1.707,0.651-2.337,1.299c-0.513,0.521-0.899,1.155-1.135,1.845
		c-0.336,0.975-0.333,2.063,0,3.042c0.324,0.963,0.958,1.815,1.79,2.4c0.521,0.365,1.114,0.626,1.74,0.752
		c0.614,0.122,1.252,0.109,1.866,0.004c0.614-0.109,1.206-0.332,1.723-0.681c0.82-0.55,1.4-1.441,1.563-2.416
		c-1.42,0-2.841,0-4.261,0c0-1.017,0-2.034,0-3.052c2.449,0,4.904,0,7.354,0c0.244,1.379,0.193,2.812-0.197,4.153
		c-0.357,1.231-1.034,2.374-1.979,3.244c-0.895,0.824-2.018,1.391-3.202,1.664c-1.312,0.299-2.699,0.307-4.001-0.042
		c-1.034-0.273-2.005-0.769-2.842-1.433c-0.882-0.702-1.613-1.602-2.123-2.61c-0.781-1.546-1.021-3.358-0.676-5.056
		c0.139-0.685,0.366-1.345,0.681-1.967c0.903-1.803,2.525-3.228,4.43-3.879C12.257,262.025,14.148,262.038,15.83,262.661z
		 M27.662,268.517v-2.638h-2.186v2.638h-2.632v2.092h2.632v2.726h2.186v-2.726H30.3v-2.092H27.662z"/>
</g>
<path fill="#EE4256" d="M25.876,588.375c0.564,0,1.042,0.198,1.433,0.594c0.39,0.394,0.585,0.873,0.585,1.438v6.757
	c0,1.527-0.295,2.986-0.884,4.375c-0.591,1.388-1.383,2.582-2.376,3.581c-0.995,0.997-2.184,1.79-3.567,2.376
	s-2.836,0.879-4.356,0.879c-1.528,0-2.983-0.293-4.368-0.879c-1.384-0.586-2.575-1.379-3.574-2.376
	c-0.998-0.999-1.792-2.192-2.382-3.581c-0.59-1.391-0.886-2.849-0.886-4.375v-6.757c0-0.557,0.199-1.034,0.599-1.433
	c0.399-0.399,0.877-0.6,1.433-0.6h18.346H25.876z M16.71,602.228c0.407,0,0.763-0.143,1.066-0.43l5.26-5.052
	c0.321-0.303,0.482-0.672,0.482-1.105c0-0.427-0.149-0.788-0.45-1.088c-0.299-0.3-0.662-0.449-1.087-0.449
	c-0.408,0-0.764,0.144-1.067,0.431l-4.207,4.035l-4.205-4.035c-0.304-0.287-0.656-0.431-1.055-0.431
	c-0.426,0-0.788,0.149-1.088,0.449c-0.299,0.3-0.449,0.661-0.449,1.088c0,0.441,0.157,0.812,0.469,1.105l5.273,5.052
	c0.286,0.287,0.637,0.43,1.054,0.43H16.71z"/>
<path fill="#FFFFFF" d="M60.875,588.375c0.563,0,1.042,0.198,1.432,0.593c0.392,0.395,0.587,0.874,0.587,1.438v6.758
	c0,1.526-0.296,2.985-0.886,4.375c-0.59,1.387-1.382,2.582-2.377,3.579c-0.993,0.999-2.183,1.791-3.566,2.377
	c-1.385,0.587-2.836,0.88-4.355,0.88c-1.527,0-2.983-0.293-4.369-0.88c-1.384-0.586-2.574-1.378-3.574-2.377
	c-0.998-0.998-1.792-2.192-2.381-3.579c-0.59-1.39-0.885-2.848-0.885-4.375v-6.758c0-0.556,0.199-1.033,0.6-1.432
	c0.398-0.399,0.876-0.6,1.432-0.6h18.346H60.875z M51.71,602.229c0.408,0,0.764-0.143,1.066-0.431l5.26-5.051
	c0.322-0.304,0.481-0.673,0.481-1.107c0-0.425-0.149-0.787-0.449-1.087c-0.299-0.299-0.661-0.449-1.088-0.449
	c-0.407,0-0.764,0.143-1.067,0.43l-4.204,4.037l-4.206-4.037c-0.304-0.286-0.655-0.43-1.055-0.43c-0.426,0-0.788,0.15-1.088,0.449
	c-0.299,0.299-0.449,0.661-0.449,1.087c0,0.443,0.156,0.812,0.468,1.107l5.274,5.051C50.938,602.085,51.292,602.229,51.71,602.229
	L51.71,602.229z"/>
</svg>
