<?xml version="1.0"?>
<!--Icons from directory ""-->
<svg xmlns="http://www.w3.org/2000/svg" width="46" height="276" viewBox="0 0 46 276"><svg xmlns:xlink="http://www.w3.org/1999/xlink" id="01-bold" xml:space="preserve" height="46" viewBox="-11 -11 46 46" width="46" version="1.1" y="0" x="0px" enable-background="new 4 4 16 16"><g id="01-bold-glyphicons_x5F_halflings">	<g id="01-bold-bold_2_">		<path id="01-bold-path_64_" d="m13.529 11.588s1.533-0.807 1.533-2.62c0-1.87-1.854-2.959-3.354-2.959l-4.708-0.009v0.715c1 0.235 1 0.391 1 1.144v8.275c0 0.565-0.5 0.896-1 0.976v0.89h5c1.55 0 4.078-1.082 4.078-3.43 0-2.239-2.549-2.982-2.549-2.982zm-3.529-4.088h1.183c1.704 0 2.033 0.792 2.033 1.787s-0.789 1.713-1.825 1.713h-1.391s0-3.109 0-3.5zm2.163 8.5h-2.163v-4h1.594s2.187 1.014 2.187 2.188c0 1.016-0.508 1.812-1.618 1.812z"/>	</g></g></svg><svg xmlns:xlink="http://www.w3.org/1999/xlink" id="02-italic" xml:space="preserve" height="46" viewBox="-11 -11 46 46" width="46" version="1.1" y="46" x="0px" enable-background="new 4 4 16 16"><g id="02-italic-glyphicons_x5F_halflings">	<g id="02-italic-italic_2_">		<path id="02-italic-path_65_" d="m14.786 6.572l-0.013-0.572h-4.257v0.572c1 0.268 1.37 0.3 1.219 1.162l-1.735 8.313c-0.114 0.646-1 0.896-2 0.984v0.969h5v-0.969c-1-0.09-1.208-0.307-1.094-0.953 0 0 1.25-7.922 1.329-8.391 0.077-0.468 0.361-0.846 1.551-1.115z"/>	</g></g></svg><svg xmlns:xlink="http://www.w3.org/1999/xlink" id="03-underline" xml:space="preserve" height="46" viewBox="-11 -11 46 46" width="46" version="1.1" y="92" x="0px" enable-background="new 4 4 16 16"><g id="03-underline-glyphicons">	<g id="03-underline-text-underline_1_">		<polygon points="7 17.5 7 18 17 18 17 17.5 17 17 7 17"/>		<path d="m7 6v2.5h0.498c0.002-1 0.616-1.5 1.502-1.5h2v8c0 0.5-1 0.5-1.5 0.5v0.5h5v-0.5c-0.5 0-1.5 0-1.5-0.5v-8h2c0.885 0 1.5 0.5 1.502 1.5h0.498v-2.5h-10z"/>	</g></g></svg><svg xmlns:xlink="http://www.w3.org/1999/xlink" id="04-strike" xml:space="preserve" height="46" viewBox="-11 -11 46 46" width="46" version="1.1" y="138" x="0px" enable-background="new 4 4 16 16"><g id="04-strike-glyphicons_1_">	<g id="04-strike-text-strike">		<path d="m13 7.5v4h4v1h-4v4c0 0.5 1 0.5 1.5 0.5v0.5h-5v-0.5c0.5 0 1.5 0 1.5-0.5v-4h-4v-1h4v-4h-2c-0.886 0-1.5 0.5-1.502 1.5h-0.498v-2.5h10v2.5h-0.498c-0.002-1-0.617-1.5-1.502-1.5h-2z"/>	</g></g></svg><svg xmlns:xlink="http://www.w3.org/1999/xlink" id="05-size" xml:space="preserve" height="46" viewBox="-11 -11 46 46" width="46" version="1.1" y="184" x="0px" enable-background="new 4 4 16 16"><g id="05-size-glyphicons_x5F_halflings">	<g id="05-size-text-size">		<path d="m18 6v3h-0.498c-0.002-1-0.617-1-1.502-1h-2v8.5s1 0.5 1 0.5v1h-4v-1s1 0 1-0.5 0-8.5 0-8.5h-2c-0.885 0-1.5 0-1.502 1h-0.498v-3h10zm-12 6v1.5h0.249c0.001-0.5 0.308-0.5 0.751-0.5h1v4.25s-0.5 0.25-0.5 0.25v0.5h2v-0.5s-0.5 0-0.5-0.25 0-4.25 0-4.25h1c0.443 0 0.75 0 0.751 0.5h0.249v-1.5h-5z"/>	</g></g></svg><svg xmlns:xlink="http://www.w3.org/1999/xlink" id="06-color" xml:space="preserve" height="46" viewBox="-11 -11 46 46" width="46" version="1.1" y="230" x="0px" enable-background="new 4 4 16 16"><g id="06-color-glyphicons_x5F_halflings">	<g id="06-color-text-color">		<path d="m16 14.504v0.496h-3.125v-0.496c0.562 0 0.751-0.578 0.6-0.99-0.111-0.302-0.617-1.663-0.617-1.663h-2.931s-0.43 1.09-0.688 1.758c-0.258 0.671 0.346 0.895 0.902 0.895v0.496h-2.735v-0.496s0.421-0.18 0.628-0.386c0.207-0.207 0.387-0.562 0.387-0.562l2.994-7.542h0.697l2.884 7.476s0.15 0.378 0.449 0.692c0.301 0.317 0.555 0.322 0.555 0.322zm-3.327-3.41l-1.211-3.422-1.339 3.422h2.55zm4.327 5.406c0-0.275-0.225-0.5-0.5-0.5h-10c-0.275 0-0.5 0.225-0.5 0.5v1c0 0.275 0.225 0.5 0.5 0.5h10c0.275 0 0.5-0.225 0.5-0.5v-1z"/>	</g></g></svg></svg>
