<?xml version="1.0"?>
<!--Icons from directory ""-->
<svg xmlns="http://www.w3.org/2000/svg" width="46" height="322" viewBox="0 0 46 322"><svg xmlns:xlink="http://www.w3.org/1999/xlink" id="09-pic" xml:space="preserve" height="46" viewBox="-11 -11 46 46" width="46" version="1.1" y="0" x="0px" enable-background="new 4 4 16 16"><g id="09-pic-glyphicons_x5F_halflings">	<g id="09-pic-picture_1_">		<path id="09-pic-picture_4_" d="m18 7.438c0-0.242-0.195-0.438-0.438-0.438h-11.125c-0.242 0-0.437 0.196-0.437 0.438v10.125c0 0.242 0.195 0.437 0.437 0.437h11.125c0.243 0 0.438-0.195 0.438-0.438v-10.124zm-1 5.562l-2.359-2.875-2.932 3.178 0.744 1.557-2.984-1.312-2.469 1.827v-7.375h10v5zm-6.238-2.502c0-0.742-0.602-1.342-1.342-1.342s-1.342 0.6-1.342 1.342 0.602 1.342 1.342 1.342c0.74 0 1.342-0.6 1.342-1.342z"/>	</g></g></svg><svg xmlns:xlink="http://www.w3.org/1999/xlink" id="10-video" xml:space="preserve" height="46" viewBox="-11 -11 46 46" width="46" version="1.1" y="46" x="0px" enable-background="new 4 4 16 16"><g id="10-video-glyphicons_x5F_halflings">	<g id="10-video-facetime-video">		<path d="m15 12.434v-3.684c0-0.412-0.338-0.75-0.75-0.75h-7.5c-0.412 0-0.75 0.338-0.75 0.75v6.5c0 0.412 0.338 0.75 0.75 0.75h7.5c0.412 0 0.75-0.338 0.75-0.75v-2.816z"/>		<polygon points="18 9 15 12 18 15"/>	</g></g></svg><svg xmlns:xlink="http://www.w3.org/1999/xlink" id="11-cut" xml:space="preserve" height="46" viewBox="-11 -11 46 46" width="46" version="1.1" y="92" x="0px" enable-background="new 4 4 16 16"><g id="11-cut-glyphicons_x5F_halflings">	<g id="11-cut-scissors">		<path d="m11.586 13.646s-0.378 0.014-0.625 0.049c-0.383 0.056-0.677-0.246-0.993-0.633-0.316-0.386-0.642-0.767-1.153-0.256-0.315 0.271-1.516 1.303-1.516 1.303-0.625 0.539-0.697 1.49-0.159 2.115l1.304 1.517c0.538 0.625 1.49 0.696 2.115 0.159l0.803-0.691c0.626-0.538 0.889-0.918 0.711-1.768l-0.487-1.795zm-1.214 2.145s-0.41 0.352-0.612 0.527-0.435 0.054-0.594-0.131c-0.158-0.185-0.158-0.185-0.365-0.426-0.207-0.24-0.241-0.466-0.02-0.656 0.171-0.147 0.442-0.381 1.022-0.879 0.174-0.149 0.287-0.078 0.412 0.064 0.113 0.128 0.27 0.812 0.296 1.01 0.027 0.2 0.011 0.362-0.139 0.491zm2.035-6.791l4.233-2.471c0.254-0.104 0.608-0.019 0.789 0.19l0.325 0.379c0.179 0.209 0.155 0.526-0.053 0.705l-1.392 1.197h-3.902zm6.093 1h-8.234l-1.015-2.123c-0.419-0.761-0.867-0.877-1.692-0.877h-1.059c-0.825 0-1.5 0.675-1.5 1.5v2c0 0.825 0.675 1.5 1.5 1.5h2 1s0.898 0.512 1 0.674 0.328 0.359 0.655 0.311l7.371-1.326c0.261-0.088 0.474-0.384 0.474-0.659v-0.5c0-0.275-0.225-0.5-0.5-0.5zm-10.177 0.279h-1.348c-0.292 0-0.414-0.193-0.414-0.511s0-0.317 0-0.56 0.098-0.486 0.365-0.486h0.808c0.198 0 0.316 0.113 0.425 0.281s0.436 0.787 0.434 0.958c-0.002 0.189-0.041 0.318-0.27 0.318zm3.177 1.987c-0.423 0-0.766-0.343-0.766-0.766s0.343-0.766 0.766-0.766 0.766 0.343 0.766 0.766-0.343 0.766-0.766 0.766z"/>	</g></g></svg><svg xmlns:xlink="http://www.w3.org/1999/xlink" id="12-spoiler" xml:space="preserve" height="46" viewBox="-11 -11 46 46" width="46" version="1.1" y="138" x="0px" enable-background="new 4 4 16 16"><g id="12-spoiler-glyphicons_x5F_halflings">	<g id="12-spoiler-eye-open">		<path d="m12 7.062c-3.984 0-6.359 3.969-6.359 4.938s2.406 4.938 6.359 4.938 6.359-3.969 6.359-4.938-2.375-4.938-6.359-4.938zm-0.919 3.749c0.205 0.337 0.524 0.807 0.893 1.168 0.197 0.193 0.228 0.476 0.032 0.671l-0.342 0.342c-0.195 0.195-0.546 0.234-0.756 0.057-0.378-0.32-0.69-0.715-0.926-1.156-0.13-0.243-0.052-0.612 0.144-0.807l0.356-0.356c0.195-0.195 0.455-0.155 0.599 0.081zm-3.641 1.622c-0.143-0.236-0.11-0.616 0.06-0.833 0.365-0.466 1.002-1.252 1.596-1.841 0.195-0.195 0.242-0.153 0.135 0.101-0.147 0.351-0.231 0.735-0.231 1.14 0 1.656 1.343 3 3 3s3-1.344 3-3c0-0.424-0.09-0.827-0.25-1.192-0.111-0.253-0.066-0.294 0.131-0.1 0.627 0.617 1.266 1.42 1.625 1.894 0.167 0.22 0.197 0.601 0.055 0.838-0.58 0.958-2.176 3.164-4.561 3.164s-3.98-2.211-4.56-3.171z"/>	</g></g></svg><svg xmlns:xlink="http://www.w3.org/1999/xlink" id="13-maps" xml:space="preserve" height="46" viewBox="-11 -11 46 46" width="46" version="1.1" y="184" x="0px" enable-background="new 4 4 16 16"><g id="13-maps-glyphicons_x5F_halflings">	<g id="13-maps-map-marker">		<path d="m16.779 10.699c0 0.843-0.28 1.731-0.696 2.585-1.567 2.435-3.552 4.669-3.552 4.669s-2.281-2.156-3.739-4.713c-0.365-0.798-0.604-1.642-0.604-2.488 0-2.377 1.922-4.441 4.295-4.441 2.374 0 4.296 2.011 4.296 4.388zm-2.043-0.222c0-1.225-0.991-2.215-2.213-2.215-1.224 0-2.214 0.99-2.214 2.215 0 1.224 0.992 2.214 2.214 2.214s2.213-0.99 2.213-2.214z"/>	</g></g></svg><svg xmlns:xlink="http://www.w3.org/1999/xlink" id="14-like" xml:space="preserve" height="46" viewBox="-11 -11 46 46" width="46" version="1.1" y="230" x="0px" enable-background="new 4 4 16 16"><g id="14-like-glyphicons_x5F_halflings">	<g id="14-like-thumbs-up">		<g id="14-like-thumbs_x5F_up">			<polygon opacity=".3" enable-background="new    " points="17 12.25 17 11 16 11 12.5 16 14.5 16"/>			<path d="m13 7v1.75l-0.5 2.25h4.5v1.25l-2.5 3.75h-2.143l-1.357-1h-1v-3.75l1.5-2.125 1-2.125h0.5m0-1h-0.5c-0.379 0-0.725 0.339-0.895 0.678l-0.959 1.982-1.446 1.959c-0.13 0.173-0.2 0.414-0.2 0.631v4c0 0.553 0.448 0.75 1 0.75h0.607s1.238 1 1.393 1h2.5c0.334 0 0.646-0.292 0.832-0.57l2.375-3.44c0.188-0.189 0.293-0.474 0.293-0.74v-1c0-0.553-0.448-1.25-1-1.25h-3.279s0.279-1.184 0.279-1.25v-1.5c0-0.553-0.448-1.25-1-1.25zm-5 4.5c0-0.275-0.225-0.5-0.5-0.5h-1c-0.275 0-0.5 0.225-0.5 0.5v5c0 0.275 0.225 0.5 0.5 0.5h1c0.275 0 0.5-0.225 0.5-0.5v-5z"/>		</g>	</g></g></svg><svg xmlns:xlink="http://www.w3.org/1999/xlink" id="15-poll" xml:space="preserve" height="46" viewBox="-11 -11 46 46" width="46" version="1.1" y="276" x="0px" enable-background="new 4 4 16 16"><g id="15-poll-glyphicons_x5F_halflings">	<g id="15-poll-check">		<path d="m9.599 11.86c-0.097-0.097-0.097-0.256 0-0.354l1.01-1.009c0.097-0.097 0.256-0.097 0.354 0l1.112 1.112c0.097 0.097 0.256 0.097 0.354 0l3.949-3.949c0.097-0.097 0.256-0.097 0.353 0l1.01 1.01c0.097 0.097 0.097 0.256 0 0.354l-5.31 5.314c-0.097 0.098-0.256 0.098-0.353 0l-2.479-2.478z"/>		<path d="m15 14.309v0.691c0 0.55-0.45 1-1 1h-5c-0.55 0-1-0.45-1-1v-5c0-0.55 0.45-1 1-1h3.492l1.773-1.774c-0.4-0.135-0.822-0.226-1.265-0.226h-3.5c-2.2 0-3.5 1.3-3.5 3.5v4c0 2.2 1.3 3.5 3.5 3.5h4c2.2 0 3.5-1.3 3.5-3.5v-2.191l-2 2z"/>	</g></g></svg></svg>
