<?xml version="1.0"?>
<!--Icons from directory ""-->
<svg xmlns="http://www.w3.org/2000/svg" width="46" height="92" viewBox="0 0 46 92"><svg xmlns:xlink="http://www.w3.org/1999/xlink" id="07-link" xml:space="preserve" height="46" viewBox="-11 -11 46 46" width="46" version="1.1" y="0" x="0px" enable-background="new 4 4 16 16"><g id="07-link-glyphicons_x5F_halflings">	<g id="07-link-link">		<path d="m10.232 18.139c-0.601 0-1.166-0.232-1.591-0.658l-1.415-1.414c-0.425-0.426-0.659-0.989-0.659-1.592 0-0.601 0.234-1.166 0.659-1.591l0.551-0.551c0.192 0.362 0.445 0.703 0.755 1.013l0.177 0.178-0.953 0.951 2.475 2.477 3.889-3.891-2.12-2.122 1.05-1.051c0.063 0.052 0.127 0.107 0.187 0.167l1.414 1.414c0.877 0.877 0.877 2.305 0 3.182l-2.829 2.83c-0.424 0.424-0.989 0.658-1.59 0.658zm0.531-4.196l-1.414-1.413c-0.425-0.425-0.659-0.99-0.659-1.591s0.234-1.166 0.659-1.591l2.828-2.829c0.425-0.425 0.99-0.658 1.591-0.658 0.602 0 1.166 0.233 1.592 0.658l1.414 1.415c0.426 0.425 0.66 0.989 0.66 1.591 0 0.601-0.481 1.413-0.908 1.838l-0.283 0.284c-0.21-0.353-0.471-0.685-0.776-0.991l-0.177-0.177 0.955-0.954-2.475-2.475-3.89 3.889 2.12 2.122-1.054 1.056c-0.057-0.053-0.125-0.114-0.183-0.174z"/>	</g></g></svg><svg xmlns:xlink="http://www.w3.org/1999/xlink" id="08-user" xml:space="preserve" height="46" viewBox="-11 -11 46 46" width="46" version="1.1" y="46" x="0px" enable-background="new 4 4 16 16"><g id="08-user-glyphicons_x5F_halflings">	<g id="08-user-user">		<path id="08-user-path_7_" d="m18 16.824v0.926c0 0.139-0.111 0.25-0.25 0.25h-11.5c-0.138 0-0.25-0.111-0.25-0.25v-0.926c0-0.137 0.095-0.311 0.21-0.385l3.58-2.305c0.115-0.073 0.21-0.245 0.21-0.384v-0.75c-0.55 0-1-0.95-1-1.5v-2.5c0-1.65 1.35-3 3-3s3 1.35 3 3v2.5c0 0.55-0.45 1.5-1 1.5v0.75c0 0.139 0.096 0.311 0.21 0.385l3.58 2.305c0.114 0.074 0.21 0.248 0.21 0.384z"/>	</g></g></svg></svg>
